<svg id="Layer_1" data-name="Layer 1" xmlns="http://www.w3.org/2000/svg" viewBox="0 0 241.9 241.9"><defs><style>.cls-1,.cls-2,.cls-3,.cls-4,.cls-5{fill:none;}.cls-1,.cls-2,.cls-3,.cls-4,.cls-9{stroke:#231f20;stroke-linecap:round;stroke-linejoin:round;}.cls-1,.cls-2,.cls-3,.cls-9{stroke-width:0.25px;}.cls-2{stroke-dasharray:6.66 6.66;}.cls-3{stroke-dasharray:6.66 6.66;}.cls-4{stroke-width:0.75px;}.cls-5{stroke:#197d5a;stroke-miterlimit:10;stroke-width:0.5px;}.cls-6{fill:#197d5a;}.cls-7{fill:#fff;}.cls-8{fill:#2ad196;}.cls-11,.cls-9{fill:#414042;}.cls-10{fill:#231f20;}</style></defs><path class="cls-1" d="M285.8,289.44c-1.14.28-2.27.57-3.39.89" transform="translate(-187.74 -263.29)"/><path class="cls-2" d="M276.06,292.34a97.53,97.53,0,0,0-60.33,62.42" transform="translate(-187.74 -263.29)"/><path class="cls-1" d="M214.78,358c-.32,1.12-.61,2.25-.88,3.39" transform="translate(-187.74 -263.29)"/><path class="cls-1" d="M403.49,361.35c-.28-1.14-.57-2.27-.88-3.39" transform="translate(-187.74 -263.29)"/><path class="cls-2" d="M400.59,351.61a97.53,97.53,0,0,0-62.42-60.33" transform="translate(-187.74 -263.29)"/><path class="cls-1" d="M335,290.33c-1.12-.32-2.25-.61-3.38-.89" transform="translate(-187.74 -263.29)"/><path class="cls-1" d="M331.59,479c1.13-.28,2.26-.57,3.38-.89" transform="translate(-187.74 -263.29)"/><path class="cls-3" d="M341.33,476.14a97.49,97.49,0,0,0,60.32-62.42" transform="translate(-187.74 -263.29)"/><path class="cls-1" d="M402.61,410.52c.31-1.12.6-2.25.88-3.39" transform="translate(-187.74 -263.29)"/><path class="cls-1" d="M213.9,407.13c.27,1.14.56,2.27.88,3.39" transform="translate(-187.74 -263.29)"/><path class="cls-3" d="M216.79,416.87a97.5,97.5,0,0,0,62.43,60.33" transform="translate(-187.74 -263.29)"/><path class="cls-1" d="M282.41,478.15c1.12.32,2.25.61,3.39.89" transform="translate(-187.74 -263.29)"/><circle class="cls-4" cx="120.95" cy="23.43" r="23.05"/><circle class="cls-4" cx="218.47" cy="120.95" r="23.05"/><circle class="cls-4" cx="120.95" cy="218.47" r="23.05"/><circle class="cls-4" cx="23.43" cy="120.95" r="23.05"/><line class="cls-5" x1="106.67" y1="224.24" x2="135.23" y2="224.24"/><path class="cls-5" d="M294.41,489.33V471.26" transform="translate(-187.74 -263.29)"/><path class="cls-5" d="M295.11,470.56c-.49,0-.7.21-.7.7" transform="translate(-187.74 -263.29)"/><path class="cls-5" d="M295.11,470.56h27.16" transform="translate(-187.74 -263.29)"/><path class="cls-5" d="M323,471.26c0-.49-.2-.7-.7-.7" transform="translate(-187.74 -263.29)"/><path class="cls-5" d="M323,471.26v18.07" transform="translate(-187.74 -263.29)"/><path class="cls-5" d="M322.27,490c.5,0,.7-.21.7-.7" transform="translate(-187.74 -263.29)"/><path class="cls-5" d="M322.27,490H295.11" transform="translate(-187.74 -263.29)"/><rect class="cls-5" x="107.79" y="208.35" width="26.33" height="14.81"/><polyline class="cls-5" points="116.63 229.8 116.63 229.81 116.63 229.95 120.95 229.95 125.28 229.95 125.28 229.81 125.28 229.8"/><path class="cls-5" d="M311.84,490c.09.79.17,1.59.25,2.39" transform="translate(-187.74 -263.29)"/><path class="cls-5" d="M312.09,492.42c0,.28.3.48.81.62.08,0,.11,0,.11,0s0,0-.07,0" transform="translate(-187.74 -263.29)"/><path class="cls-5" d="M304.44,493.1c-.05,0-.07,0-.07,0s0,0,.12,0c.5-.14.77-.34.8-.62" transform="translate(-187.74 -263.29)"/><path class="cls-5" d="M305.29,492.42c.08-.8.17-1.6.25-2.39" transform="translate(-187.74 -263.29)"/><path class="cls-5" d="M294.41,489.33c0,.49.21.7.7.7" transform="translate(-187.74 -263.29)"/><path class="cls-6" d="M411.93,375a3.14,3.14,0,1,1-4.22,1.36A3.13,3.13,0,0,1,411.93,375Z" transform="translate(-187.74 -263.29)"/><path class="cls-6" d="M403.67,375a3.14,3.14,0,1,1-4.23,1.36A3.15,3.15,0,0,1,403.67,375Z" transform="translate(-187.74 -263.29)"/><path class="cls-6" d="M403.94,392.8a3,3,0,0,1-1.06.24,2.83,2.83,0,0,1-1-.16,5,5,0,0,1-1-.47c-.35-.22-.76-.5-1.09-.76a5.85,5.85,0,0,1-.79-.72,3.15,3.15,0,0,1-.43-.57,2.07,2.07,0,0,1-.22-.46,4.11,4.11,0,0,1,0-1.06v-3.31c0-.82,0-.83,0-.85l-.17-.09-.44-.19-.6-.26c-.21-.09-.4-.17-.68-.31l-1-.51c-.39-.21-.79-.43-1.14-.66a5.34,5.34,0,0,1-.95-.77,8.28,8.28,0,0,1-.8-1,2.69,2.69,0,0,1-.35-.66,1.15,1.15,0,0,1-.07-.4.79.79,0,0,1,0-.21.21.21,0,0,1,.05-.07.19.19,0,0,1,.09-.05.34.34,0,0,1,.17,0,1.2,1.2,0,0,1,.32.12,4.79,4.79,0,0,1,.73.36c.29.16.59.37,1.14.69a18.12,18.12,0,0,0,2,1,7.16,7.16,0,0,0,1.68.45c.54.09,1.15.17,1.73.24s1.14.1,1.78.13l1.83,0a3.31,3.31,0,0,1,.91.07,5.46,5.46,0,0,1,1.82,1.19v-.52a1.06,1.06,0,0,1,.68-.57,4.44,4.44,0,0,1,.89-.21,9.58,9.58,0,0,1,1.6-.12c1,0,2.64,0,3.5,0a3.26,3.26,0,0,0,1.31-.13,19.42,19.42,0,0,0,1.85-.67c.78-.33,1.63-.76,2.11-1a3,3,0,0,0,.73-.5,5.07,5.07,0,0,1,.44-.37,3.54,3.54,0,0,1,.38-.24c.08,0,.12-.06.16-.05a.33.33,0,0,1,.13,0,.37.37,0,0,1,.13.12.44.44,0,0,1,.07.21,1,1,0,0,1,0,.31,3,3,0,0,1-.15.57,5.23,5.23,0,0,1-.42.87,4.52,4.52,0,0,1-.72.85,10.4,10.4,0,0,1-1.05.86,10.05,10.05,0,0,1-1.3.72c-.65.33-1.67.84-2.29,1.17v4.46a6.28,6.28,0,0,1-.25,1.1,8.18,8.18,0,0,1-.39.92,6,6,0,0,1-.46.8,2.46,2.46,0,0,1-.52.58,3,3,0,0,1-.59.38,5.1,5.1,0,0,1-.64.29,2.16,2.16,0,0,1-.57.14c-.2,0-.45,0-.7,0s-.53,0-.84-.06a7.09,7.09,0,0,1-1-.22,3.32,3.32,0,0,1-.85-.4,3,3,0,0,1-.7-.59,2.49,2.49,0,0,1-.51-1v-4.36a2.93,2.93,0,0,1-.9-.33v4.69A3.34,3.34,0,0,1,403.94,392.8Z" transform="translate(-187.74 -263.29)"/><path class="cls-6" d="M216.79,383.55l5.67,7.73V377.34ZM221.9,394H200.43a1.44,1.44,0,0,1-1.39-.47,2.22,2.22,0,0,1-.51-.84,4.1,4.1,0,0,1-.11-1.22l0-7.21,0-7.22a4,4,0,0,1,.11-1.21,2,2,0,0,1,.24-.51A2.12,2.12,0,0,1,199,375a1.44,1.44,0,0,1,1.39-.47H221.9a2,2,0,0,1,.95.12,1.74,1.74,0,0,1,.44.35,2.2,2.2,0,0,1,.28.34,2,2,0,0,1,.24.51,4,4,0,0,1,.11,1.21l0,7.22,0,7.21a4.1,4.1,0,0,1-.11,1.22,2.12,2.12,0,0,1-.24.5,2.2,2.2,0,0,1-.28.34,1.74,1.74,0,0,1-.44.35A2,2,0,0,1,221.9,394Zm-22-2.7,5.67-7.73-5.67-6.21Zm6.73-6.71-5.79,8h20.7l-5.79-8a7.59,7.59,0,0,1-1.74,1.52,3.86,3.86,0,0,1-1.16.48,6.23,6.23,0,0,1-1.66.17,6.36,6.36,0,0,1-1.67-.17,3.91,3.91,0,0,1-1.15-.48A7.59,7.59,0,0,1,206.61,384.57ZM200.77,376l7.3,7.92a3.72,3.72,0,0,0,2.21,1.32,5,5,0,0,0,1.78,0,3.72,3.72,0,0,0,2.21-1.32l7.3-7.92h-20.8Z" transform="translate(-187.74 -263.29)"/><polygon class="cls-7" points="132.89 19.59 133.66 19.59 133.66 29.58 132.89 29.58 132.12 29.58 132.12 19.59 132.89 19.59"/><polygon class="cls-7" points="131.54 18.48 131.54 17.47 132.89 17.47 134.24 17.47 134.24 18.48 131.54 18.48"/><polygon class="cls-7" points="133.97 31.8 131.81 31.8 131.81 30.78 132.89 30.78 133.97 30.78 133.97 31.8"/><path class="cls-6" d="M320.63,282.87h-.77v10h1.54v-10Zm-1.35-1.11H322v-1h1.32v2.12h-.83v10h.36v2.22h-1.12v-1h-2.16v1h-1.12v-2.22h.36v-10H318v-2.12h1.32Z" transform="translate(-187.74 -263.29)"/><polygon class="cls-7" points="129.62 19.59 129.62 17.47 130.22 17.47 130.22 19.59 131.05 19.59 131.05 29.58 130.69 29.58 130.69 31.8 129.16 31.8 129.16 29.58 128.8 29.58 128.8 19.59 129.62 19.59"/><polygon class="cls-7" points="126.96 19.59 127.72 19.59 127.72 29.58 126.96 29.58 126.19 29.58 126.19 19.59 126.96 19.59"/><polygon class="cls-7" points="126.96 30.78 128.04 30.78 128.04 31.8 125.87 31.8 125.87 30.78 126.96 30.78"/><polygon class="cls-7" points="126.96 17.47 128.3 17.47 128.3 18.48 125.61 18.48 125.61 17.47 126.96 17.47"/><path class="cls-6" d="M314.7,292.86h.76v-10h-1.53v10Zm-2.67-10v-2.12h1.32v1H316v-1h1.32v2.12h-.82v10h.36v2.22h-1.12v-1h-2.17v1H312.5v-2.22h.35v-10Z" transform="translate(-187.74 -263.29)"/><polygon class="cls-6" points="120.95 35.18 103.95 35.18 103.95 33.84 120.95 33.84 137.95 33.84 137.95 35.18 120.95 35.18"/><path class="cls-7" d="M308.68,273.58h0a1.1,1.1,0,0,1,0,2.2h0a1.09,1.09,0,0,1-1.06-1.09A1.11,1.11,0,0,1,308.68,273.58Z" transform="translate(-187.74 -263.29)"/><path class="cls-7" d="M308.7,271l13.16,6.77H308.69V277h0a2.29,2.29,0,0,0,0-4.58h0a2.16,2.16,0,0,0-1.07.28l-.46-.9,1.54-.8Z" transform="translate(-187.74 -263.29)"/><path class="cls-6" d="M308.68,273.58a1.11,1.11,0,0,0-1.07,1.11,1.09,1.09,0,0,0,1.06,1.09h0a1.1,1.1,0,0,0,0-2.2Zm0-1.19a2.29,2.29,0,0,1,0,4.58h0a2.29,2.29,0,0,1-1.06-4.3,2.16,2.16,0,0,1,1.07-.28Z" transform="translate(-187.74 -263.29)"/><path class="cls-6" d="M309.07,290.5a1.12,1.12,0,0,0,.32-.09,1.57,1.57,0,0,0,.23-.13,1.22,1.22,0,0,0,.17-.15,1,1,0,0,0,.14-.21.58.58,0,0,0,.07-.21,1.55,1.55,0,0,0,0-.21.35.35,0,0,0,0-.17.76.76,0,0,0-.11-.22,1,1,0,0,0-.21-.21,2.12,2.12,0,0,0-.33-.21,4.58,4.58,0,0,0-.49-.23l-.54-.21-.44-.18a4.08,4.08,0,0,1-.5-.27l-.41-.25-.31-.27a2.11,2.11,0,0,1-.25-.27,1.86,1.86,0,0,1-.2-.4,3.05,3.05,0,0,1-.14-.54,1.68,1.68,0,0,1,0-.5,1.71,1.71,0,0,1,.18-.59,3.15,3.15,0,0,1,.45-.67,2,2,0,0,1,.55-.47,2.2,2.2,0,0,1,.82-.27l.09,0v-1.27h1.22v1.28a4.6,4.6,0,0,1,2,.87l-.64,1.23a1.26,1.26,0,0,0-.17-.13l-.26-.17-.3-.18-.25-.11-.32-.11a2.08,2.08,0,0,0-.36-.06h-.39a1.07,1.07,0,0,0-.3.06,2,2,0,0,0-.37.17.94.94,0,0,0-.25.21,1,1,0,0,0-.1.16.78.78,0,0,0,0,.18,1.21,1.21,0,0,0,0,.19,1.06,1.06,0,0,0,0,.19.56.56,0,0,0,.09.17,1.2,1.2,0,0,0,.16.17,1.7,1.7,0,0,0,.26.18,1.78,1.78,0,0,0,.34.17l.57.24.55.23.46.2a1.92,1.92,0,0,1,.42.25c.16.11.36.26.5.38a1.23,1.23,0,0,1,.29.33,1.77,1.77,0,0,1,.2.46,3.2,3.2,0,0,1,.08.54,2.79,2.79,0,0,1-.22,1.09,2.34,2.34,0,0,1-.3.47,3.73,3.73,0,0,1-.39.4,1.45,1.45,0,0,1-.36.25,2.76,2.76,0,0,1-.46.19,2,2,0,0,1-.45.11v1.23h-1.22v-1.26a3.08,3.08,0,0,1-.35-.07,3.52,3.52,0,0,1-.47-.15l-.53-.22a4.25,4.25,0,0,1-.39-.25,4.68,4.68,0,0,1-.58-.5l.84-1.1a4.2,4.2,0,0,1,.53.38,2.52,2.52,0,0,0,.34.23,3.42,3.42,0,0,0,.33.16,2,2,0,0,0,.4.11,2.55,2.55,0,0,0,.8,0Z" transform="translate(-187.74 -263.29)"/><path class="cls-7" d="M308.67,277.74H295.52l11.63-6,.46.9a2.29,2.29,0,0,0,1.06,4.3h0v.77Z" transform="translate(-187.74 -263.29)"/><path class="cls-7" d="M308.69,280.75H312v2.12h.82v10h-.35v2.22h-7.61v-2.22h-.36v-10h.82v-2.12Zm.7,9.66a1.12,1.12,0,0,1-.32.09,2.55,2.55,0,0,1-.8,0,2,2,0,0,1-.4-.11,3.42,3.42,0,0,1-.33-.16,2.52,2.52,0,0,1-.34-.23,4.2,4.2,0,0,0-.53-.38l-.84,1.1a4.68,4.68,0,0,0,.58.5,4.25,4.25,0,0,0,.39.25l.53.22a3.52,3.52,0,0,0,.47.15,3.08,3.08,0,0,0,.35.07v1.26h1.22V291.9a2,2,0,0,0,.45-.11,2.76,2.76,0,0,0,.46-.19,1.45,1.45,0,0,0,.36-.25,3.73,3.73,0,0,0,.39-.4,2.34,2.34,0,0,0,.3-.47,2.79,2.79,0,0,0,.22-1.09,3.2,3.2,0,0,0-.08-.54,1.77,1.77,0,0,0-.2-.46,1.23,1.23,0,0,0-.29-.33c-.14-.12-.34-.27-.5-.38a1.92,1.92,0,0,0-.42-.25l-.46-.2-.55-.23-.57-.24a1.78,1.78,0,0,1-.34-.17,1.7,1.7,0,0,1-.26-.18,1.2,1.2,0,0,1-.16-.17.56.56,0,0,1-.09-.17,1.06,1.06,0,0,1,0-.19,1.21,1.21,0,0,1,0-.19.78.78,0,0,1,0-.18,1,1,0,0,1,.1-.16.94.94,0,0,1,.25-.21,2,2,0,0,1,.37-.17,1.07,1.07,0,0,1,.3-.06h.39a2.08,2.08,0,0,1,.36.06l.32.11.25.11.3.18.26.17a1.26,1.26,0,0,1,.17.13l.64-1.23a4.6,4.6,0,0,0-2-.87v-1.28h-1.22v1.27l-.09,0a2.2,2.2,0,0,0-.82.27,2,2,0,0,0-.55.47,3.15,3.15,0,0,0-.45.67,1.71,1.71,0,0,0-.18.59,1.68,1.68,0,0,0,0,.5,3.05,3.05,0,0,0,.14.54,1.86,1.86,0,0,0,.2.4,2.11,2.11,0,0,0,.25.27l.31.27.41.25a4.08,4.08,0,0,0,.5.27l.44.18.54.21a4.58,4.58,0,0,1,.49.23,2.12,2.12,0,0,1,.33.21,1,1,0,0,1,.21.21.76.76,0,0,1,.11.22.35.35,0,0,1,0,.17,1.55,1.55,0,0,1,0,.21.58.58,0,0,1-.07.21,1,1,0,0,1-.14.21,1.22,1.22,0,0,1-.17.15A1.57,1.57,0,0,1,309.39,290.41Z" transform="translate(-187.74 -263.29)"/><polygon class="cls-7" points="114.18 19.59 114.95 19.59 115.71 19.59 115.71 29.58 114.95 29.58 114.18 29.58 114.18 19.59"/><polygon class="cls-7" points="113.87 31.8 113.87 30.78 114.95 30.78 116.03 30.78 116.03 31.8 113.87 31.8"/><polygon class="cls-7" points="113.6 18.48 113.6 17.47 114.95 17.47 116.29 17.47 116.29 18.48 113.6 18.48"/><path class="cls-6" d="M302.69,282.87h-.77v10h1.53v-10ZM300,280.75h1.32v1H304v-1h1.32v2.12h-.82v10h.36v2.22h-1.12v-1h-2.16v1h-1.12v-2.22h.36v-10H300Z" transform="translate(-187.74 -263.29)"/><polygon class="cls-7" points="111.21 29.58 110.86 29.58 110.86 19.59 111.68 19.59 111.68 17.47 112.28 17.47 112.28 19.59 113.11 19.59 113.11 29.58 112.75 29.58 112.75 31.8 111.21 31.8 111.21 29.58"/><polygon class="cls-7" points="109.01 19.59 109.78 19.59 109.78 29.58 109.01 29.58 108.25 29.58 108.25 19.59 109.01 19.59"/><polygon class="cls-7" points="107.67 18.48 107.67 17.47 109.01 17.47 110.36 17.47 110.36 18.48 107.67 18.48"/><polygon class="cls-7" points="107.93 31.8 107.93 30.78 109.01 30.78 110.1 30.78 110.1 31.8 107.93 31.8"/><path class="cls-6" d="M321.86,277.74,308.7,271h0l-1.54.8-11.63,6h26.34Zm-13.17-8L325,278l-.36,1H292.73l-.37-1Z" transform="translate(-187.74 -263.29)"/><path class="cls-6" d="M296,282.87v10h1.53v-10H296Zm-1.9,0v-2.12h1.32v1h2.69v-1h1.32v2.12h-.82v10H299v2.22h-1.11v-1h-2.17v1h-1.12v-2.22h.36v-10Z" transform="translate(-187.74 -263.29)"/><polygon class="cls-6" points="125.87 31.8 128.04 31.8 129.16 31.8 130.69 31.8 131.81 31.8 133.97 31.8 135.09 31.8 136.27 31.8 136.27 33.02 120.95 33.02 105.63 33.02 105.63 31.8 106.81 31.8 107.93 31.8 110.1 31.8 111.21 31.8 112.75 31.8 113.87 31.8 116.03 31.8 117.15 31.8 120.95 31.8 124.76 31.8 125.87 31.8"/><polygon class="cls-6" points="124.29 17.47 120.95 17.47 117.61 17.47 116.29 17.47 114.95 17.47 113.6 17.47 112.28 17.47 111.68 17.47 110.36 17.47 109.01 17.47 107.67 17.47 106.35 17.47 105.13 17.47 105.13 16.36 120.95 16.36 136.77 16.36 136.77 17.47 135.56 17.47 134.24 17.47 132.89 17.47 131.54 17.47 130.22 17.47 129.62 17.47 128.3 17.47 126.96 17.47 125.61 17.47 124.29 17.47"/><path class="cls-8" d="M314.74,372.8a8.36,8.36,0,0,0-3.89-1.86v5.51Zm7.71,7.48a13.55,13.55,0,0,1,0,2.11,12.16,12.16,0,0,1-.36,2.13,15.66,15.66,0,0,1-.84,2.34,11.68,11.68,0,0,1-1.22,2.05,21,21,0,0,1-1.62,1.88,12.82,12.82,0,0,1-1.55,1.46,9,9,0,0,1-1.76,1.06,21.82,21.82,0,0,1-2.64,1.08,9.65,9.65,0,0,1-3.05.53H298.22v6.32h-3.31V380.89a14.45,14.45,0,0,1,.21-1.83,11.86,11.86,0,0,1,.31-1.42c.13-.43.29-.87.43-1.24s.26-.69.39-1,.27-.53.44-.84.35-.69.56-1a9.28,9.28,0,0,1,.67-1,10.77,10.77,0,0,1,.77-.88,9.88,9.88,0,0,1,.88-.8c.33-.28.71-.58,1.07-.85s.73-.48,1.09-.69.74-.38,1.08-.54.63-.29,1-.43.81-.3,1.21-.42a11.48,11.48,0,0,1,1.16-.27c.42-.07.89-.13,1.35-.17a10.18,10.18,0,0,1,1.35,0c.44,0,.89.06,1.28.11l1.08.16c.36.06.73.13,1.15.24a11.57,11.57,0,0,1,1.29.44c.42.17.81.35,1.18.53s.74.38,1.09.6a10.71,10.71,0,0,1,1,.72c.34.26.71.55,1,.83a10.56,10.56,0,0,1,.82.82,11.33,11.33,0,0,1,.75.92c.27.37.58.82.87,1.31s.57,1,.8,1.49a15.28,15.28,0,0,1,.94,2.76A11.58,11.58,0,0,1,322.45,380.28Zm-3.12,1.89H309.9l-3,3.16,11.38.05A9.77,9.77,0,0,0,319.33,382.17ZM313.15,379h5.76a8.31,8.31,0,0,0-1.82-3.93Zm2.84,9.51H303.6l-3,3.2,9.28-.06a6.34,6.34,0,0,0,1.43-.17,11.56,11.56,0,0,0,1.49-.52,7.74,7.74,0,0,0,1.37-.77A7.66,7.66,0,0,0,316,388.49Zm-8.42-8.5v-9.33a10.23,10.23,0,0,0-3,.92v11.2Zm-6.17,6.22V373.87a8.65,8.65,0,0,0-2,2.65c-.29.59-.47,1-.69,1.55a6.23,6.23,0,0,0-.45,2.71v8.48l.09-.09Z" transform="translate(-187.74 -263.29)"/><rect class="cls-9" x="91.36" y="87.94" width="0.45" height="9.09"/><rect class="cls-9" x="91.36" y="99.76" width="0.45" height="9.1"/><path class="cls-10" d="M290.25,444.81a11.52,11.52,0,0,1-3.95-.42,8.76,8.76,0,0,1-1.73-.78,5.73,5.73,0,0,1-1.43-1.15,14.1,14.1,0,0,1-1.53-2,6.47,6.47,0,0,1-.9-2.18,21.14,21.14,0,0,1-.29-4.85V335.08a21.14,21.14,0,0,1,.29-4.85,6.47,6.47,0,0,1,.9-2.18,14.1,14.1,0,0,1,1.53-2,5.73,5.73,0,0,1,1.43-1.15,8.76,8.76,0,0,1,1.73-.78,11.8,11.8,0,0,1,3.95-.42h36.89a11.76,11.76,0,0,1,3.94.42,8.76,8.76,0,0,1,1.73.78,5.94,5.94,0,0,1,1.44,1.15,14.05,14.05,0,0,1,1.52,2,6.27,6.27,0,0,1,.9,2.18,21.53,21.53,0,0,1,.3,4.85v98.31a21.53,21.53,0,0,1-.3,4.85,6.27,6.27,0,0,1-.9,2.18,14.05,14.05,0,0,1-1.52,2,5.94,5.94,0,0,1-1.44,1.15,8.76,8.76,0,0,1-1.73.78,11.49,11.49,0,0,1-3.94.42H290.25ZM283,439.08a5.15,5.15,0,0,0,.64,1.11,6.07,6.07,0,0,0,.82.91,5.44,5.44,0,0,0,.84.68,8,8,0,0,0,3.59,1h39.52a6.47,6.47,0,0,0,2.35-.45,6.21,6.21,0,0,0,1.24-.56,6,6,0,0,0,.85-.68,7.39,7.39,0,0,0,.82-.91,5.56,5.56,0,0,0,.63-1.11,5.84,5.84,0,0,0,.34-1.08c.07-.35.12-.7.2-1.2a12.75,12.75,0,0,0,.17-2.95V334.62a12.75,12.75,0,0,0-.17-2.95c-.08-.5-.13-.85-.2-1.2a6.09,6.09,0,0,0-.34-1.08,5.56,5.56,0,0,0-.63-1.11,7.27,7.27,0,0,0-.82-.9,5.47,5.47,0,0,0-.85-.69,6.21,6.21,0,0,0-1.24-.56,6.47,6.47,0,0,0-2.35-.45h-3.89c-1.56,0-1.67.09-1.77.17a.62.62,0,0,0-.21.22.81.81,0,0,0,0,.36c0,.19,0,.46-.05.78a3.17,3.17,0,0,1-.22,1,3,3,0,0,1-.71,1,3.14,3.14,0,0,1-1.21.79,9.75,9.75,0,0,1-2.74.1H299.77A9.75,9.75,0,0,1,297,330a3.14,3.14,0,0,1-1.21-.79,3.1,3.1,0,0,1-.71-1,3.47,3.47,0,0,1-.22-1c0-.32,0-.59-.05-.78a.85.85,0,0,0,0-.36.66.66,0,0,0-.22-.22c-.1-.08-.21-.17-1.76-.17h-3.9a8,8,0,0,0-3.59,1,5,5,0,0,0-.84.69,6,6,0,0,0-.82.9,5.15,5.15,0,0,0-.64,1.11,5.31,5.31,0,0,0-.33,1.08c-.08.35-.13.7-.21,1.2a12.4,12.4,0,0,0-.16,2.95v99.23a12.4,12.4,0,0,0,.16,2.95c.08.5.13.85.21,1.2A5.13,5.13,0,0,0,283,439.08Z" transform="translate(-187.74 -263.29)"/><path class="cls-11" d="M280.42,433.39a21.14,21.14,0,0,0,.29,4.85,6.47,6.47,0,0,0,.9,2.18,14.1,14.1,0,0,0,1.53,2,5.73,5.73,0,0,0,1.43,1.15,8.76,8.76,0,0,0,1.73.78,11.52,11.52,0,0,0,3.95.42h36.89a11.49,11.49,0,0,0,3.94-.42,8.76,8.76,0,0,0,1.73-.78,5.94,5.94,0,0,0,1.44-1.15,14.05,14.05,0,0,0,1.52-2,6.27,6.27,0,0,0,.9-2.18,21.53,21.53,0,0,0,.3-4.85V335.08a21.53,21.53,0,0,0-.3-4.85,6.27,6.27,0,0,0-.9-2.18,14.05,14.05,0,0,0-1.52-2,5.94,5.94,0,0,0-1.44-1.15,8.76,8.76,0,0,0-1.73-.78,11.76,11.76,0,0,0-3.94-.42H290.25a11.8,11.8,0,0,0-3.95.42,8.76,8.76,0,0,0-1.73.78,5.73,5.73,0,0,0-1.43,1.15,14.1,14.1,0,0,0-1.53,2,6.47,6.47,0,0,0-.9,2.18,21.14,21.14,0,0,0-.29,4.85v98.31Zm.18,7.27A8.58,8.58,0,0,1,280,439c-.17-.65-.4-1.5-.44-5.91V335.41c0-4.4.27-5.26.44-5.9a8.36,8.36,0,0,1,.61-1.69,9.32,9.32,0,0,1,1.49-2.18,8.21,8.21,0,0,1,2.62-1.85c1.08-.49,2.36-.83,6.42-1.1h35.13c4.05.27,5.34.61,6.41,1.1a8.1,8.1,0,0,1,2.62,1.85,9,9,0,0,1,1.49,2.18,8.36,8.36,0,0,1,.61,1.69c.18.64.41,1.5.44,5.9v97.65c0,4.41-.26,5.26-.44,5.91a8.58,8.58,0,0,1-.61,1.69,9,9,0,0,1-1.49,2.17,8.1,8.1,0,0,1-2.62,1.85c-1.07.49-2.36.83-6.41,1.1H291.13c-4.06-.27-5.34-.61-6.42-1.1a8.21,8.21,0,0,1-2.62-1.85A9.28,9.28,0,0,1,280.6,440.66Z" transform="translate(-187.74 -263.29)"/><rect class="cls-11" x="91.19" y="79.06" width="0.62" height="4.53"/><line class="cls-1" x1="120.95" y1="182.5" x2="138.52" y2="182.5"/><path class="cls-1" d="M291.13,445.78c-4.06-.27-5.34-.61-6.42-1.1a8.21,8.21,0,0,1-2.62-1.85,9.28,9.28,0,0,1-1.49-2.17A8.58,8.58,0,0,1,280,439c-.17-.65-.4-1.5-.44-5.91" transform="translate(-187.74 -263.29)"/><line class="cls-1" x1="91.81" y1="169.78" x2="91.81" y2="120.96"/><path class="cls-1" d="M291.13,322.69c-4.06.27-5.34.61-6.42,1.1a8.21,8.21,0,0,0-2.62,1.85,9.32,9.32,0,0,0-1.49,2.18,8.36,8.36,0,0,0-.61,1.69c-.17.64-.4,1.5-.44,5.9" transform="translate(-187.74 -263.29)"/><line class="cls-1" x1="91.81" y1="83.59" x2="91.81" y2="120.96"/><line class="cls-1" x1="91.81" y1="72.13" x2="91.81" y2="79.06"/><line class="cls-1" x1="103.39" y1="59.41" x2="120.95" y2="59.41"/><line class="cls-1" x1="120.95" y1="60.38" x2="102.51" y2="60.38"/><line class="cls-1" x1="120.95" y1="181.53" x2="102.51" y2="181.53"/><path class="cls-1" d="M290.25,444.81a11.52,11.52,0,0,1-3.95-.42,8.76,8.76,0,0,1-1.73-.78,5.73,5.73,0,0,1-1.43-1.15,14.1,14.1,0,0,1-1.53-2,6.47,6.47,0,0,1-.9-2.18,21.14,21.14,0,0,1-.29-4.85" transform="translate(-187.74 -263.29)"/><line class="cls-1" x1="92.68" y1="170.11" x2="92.68" y2="120.96"/><path class="cls-1" d="M290.25,323.66a11.8,11.8,0,0,0-3.95.42,8.76,8.76,0,0,0-1.73.78,5.73,5.73,0,0,0-1.43,1.15,14.1,14.1,0,0,0-1.53,2,6.47,6.47,0,0,0-.9,2.18,21.14,21.14,0,0,0-.29,4.85" transform="translate(-187.74 -263.29)"/><line class="cls-1" x1="92.68" y1="71.8" x2="92.68" y2="120.96"/><rect class="cls-1" x="91.19" y="79.06" width="0.62" height="4.53"/><line class="cls-1" x1="120.95" y1="179.51" x2="101.19" y2="179.51"/><path class="cls-1" d="M288.93,442.79a8,8,0,0,1-3.59-1,5.44,5.44,0,0,1-.84-.68,6.07,6.07,0,0,1-.82-.91,5.33,5.33,0,0,1-1-2.19c-.08-.35-.13-.7-.21-1.2a12.4,12.4,0,0,1-.16-2.95" transform="translate(-187.74 -263.29)"/><line class="cls-1" x1="94.6" y1="170.57" x2="94.6" y2="120.96"/><path class="cls-1" d="M288.93,325.68a8,8,0,0,0-3.59,1,5,5,0,0,0-.84.69,6,6,0,0,0-.82.9,5.15,5.15,0,0,0-.64,1.11,5.31,5.31,0,0,0-.33,1.08c-.08.35-.13.7-.21,1.2a12.4,12.4,0,0,0-.16,2.95" transform="translate(-187.74 -263.29)"/><line class="cls-1" x1="94.6" y1="71.34" x2="94.6" y2="120.96"/><path class="cls-1" d="M292.83,325.68c1.55,0,1.66.09,1.76.17a.66.66,0,0,1,.22.22.85.85,0,0,1,0,.36c0,.19,0,.46.05.78a3.47,3.47,0,0,0,.22,1,3.1,3.1,0,0,0,.71,1A3.14,3.14,0,0,0,297,330a9.75,9.75,0,0,0,2.74.1" transform="translate(-187.74 -263.29)"/><line class="cls-1" x1="112.03" y1="66.84" x2="120.95" y2="66.84"/><line class="cls-1" x1="105.09" y1="62.4" x2="101.19" y2="62.4"/><path class="cls-1" d="M326.26,445.78c4.05-.27,5.34-.61,6.41-1.1a8.1,8.1,0,0,0,2.62-1.85,9,9,0,0,0,1.49-2.17,8.58,8.58,0,0,0,.61-1.69c.18-.65.41-1.5.44-5.91" transform="translate(-187.74 -263.29)"/><line class="cls-1" x1="150.09" y1="169.78" x2="150.09" y2="120.96"/><path class="cls-1" d="M326.26,322.69c4.05.27,5.34.61,6.41,1.1a8.1,8.1,0,0,1,2.62,1.85,9,9,0,0,1,1.49,2.18,8.36,8.36,0,0,1,.61,1.69c.18.64.41,1.5.44,5.9" transform="translate(-187.74 -263.29)"/><line class="cls-1" x1="150.09" y1="72.13" x2="150.09" y2="120.96"/><line class="cls-1" x1="138.52" y1="59.41" x2="120.95" y2="59.41"/><line class="cls-1" x1="120.95" y1="60.38" x2="139.4" y2="60.38"/><line class="cls-1" x1="120.95" y1="181.53" x2="139.4" y2="181.53"/><path class="cls-1" d="M327.14,444.81a11.49,11.49,0,0,0,3.94-.42,8.76,8.76,0,0,0,1.73-.78,5.94,5.94,0,0,0,1.44-1.15,14.05,14.05,0,0,0,1.52-2,6.27,6.27,0,0,0,.9-2.18,21.53,21.53,0,0,0,.3-4.85" transform="translate(-187.74 -263.29)"/><line class="cls-1" x1="149.23" y1="170.11" x2="149.23" y2="120.96"/><path class="cls-1" d="M327.14,323.66a11.76,11.76,0,0,1,3.94.42,8.76,8.76,0,0,1,1.73.78,5.94,5.94,0,0,1,1.44,1.15,14.05,14.05,0,0,1,1.52,2,6.27,6.27,0,0,1,.9,2.18,21.53,21.53,0,0,1,.3,4.85" transform="translate(-187.74 -263.29)"/><line class="cls-1" x1="149.23" y1="71.8" x2="149.23" y2="120.96"/><line class="cls-1" x1="120.95" y1="179.51" x2="140.71" y2="179.51"/><path class="cls-1" d="M328.45,442.79a6.47,6.47,0,0,0,2.35-.45,6.21,6.21,0,0,0,1.24-.56,6,6,0,0,0,.85-.68,7.39,7.39,0,0,0,.82-.91,5.56,5.56,0,0,0,.63-1.11,5.84,5.84,0,0,0,.34-1.08c.07-.35.12-.7.2-1.2a12.75,12.75,0,0,0,.17-2.95" transform="translate(-187.74 -263.29)"/><line class="cls-1" x1="147.31" y1="170.57" x2="147.31" y2="120.96"/><path class="cls-1" d="M328.45,325.68a6.47,6.47,0,0,1,2.35.45,6.21,6.21,0,0,1,1.24.56,5.47,5.47,0,0,1,.85.69,7.27,7.27,0,0,1,.82.9,5.56,5.56,0,0,1,.63,1.11,6.09,6.09,0,0,1,.34,1.08c.07.35.12.7.2,1.2a12.75,12.75,0,0,1,.17,2.95" transform="translate(-187.74 -263.29)"/><line class="cls-1" x1="147.31" y1="71.34" x2="147.31" y2="120.96"/><path class="cls-1" d="M324.56,325.68c-1.56,0-1.67.09-1.77.17a.62.62,0,0,0-.21.22.81.81,0,0,0,0,.36c0,.19,0,.46-.05.78a3.17,3.17,0,0,1-.22,1,3,3,0,0,1-.71,1,3.14,3.14,0,0,1-1.21.79,9.75,9.75,0,0,1-2.74.1" transform="translate(-187.74 -263.29)"/><line class="cls-1" x1="129.87" y1="66.84" x2="120.95" y2="66.84"/><line class="cls-1" x1="136.82" y1="62.4" x2="140.71" y2="62.4"/><line class="cls-1" x1="120.95" y1="182.5" x2="103.39" y2="182.5"/></svg>