<svg id="Layer_1" data-name="Layer 1" xmlns="http://www.w3.org/2000/svg" viewBox="0 0 168.74 211.67"><defs><style>.cls-1,.cls-10,.cls-11,.cls-12,.cls-13,.cls-14,.cls-15,.cls-9{fill:none;}.cls-1{stroke:#197d5a;stroke-width:2px;opacity:0.2;}.cls-1,.cls-10{stroke-miterlimit:10;}.cls-2{fill:#d1d3d4;}.cls-3{fill:#e6e7e8;}.cls-4{fill:#197d5a;}.cls-5{fill:#2ad196;}.cls-6{fill:#a7a9ac;}.cls-7{fill:#808285;}.cls-8{fill:#bcbec0;}.cls-10,.cls-11,.cls-12,.cls-9{stroke:#231f20;}.cls-11,.cls-12,.cls-13,.cls-14,.cls-15,.cls-9{stroke-linecap:round;stroke-linejoin:round;}.cls-13,.cls-9{stroke-width:0.25px;}.cls-10,.cls-11,.cls-15{stroke-width:0.5px;}.cls-12,.cls-14{stroke-width:0.75px;}.cls-13,.cls-14,.cls-15{stroke:#000;}</style></defs><path class="cls-1" d="M325.67,448.62l4.95,2.85c4.47,2.56,5.16,2.91,5.76,3.06a5.31,5.31,0,0,0,1.69.09,11.1,11.1,0,0,0,2.09-.21c.78-.18,1.61-.51,6.45-3.3s13.68-8,18.19-10.83,4.67-3.21,4.84-3.71a2.3,2.3,0,0,0-.09-2c-.42-.88-1.44-2-7.45-5.17" transform="translate(-206.49 -271.84)"/><path class="cls-1" d="M220.9,431.39c-6.29,3.64-6.71,4.08-7,4.48a3,3,0,0,0-.64,1.21,2.93,2.93,0,0,0,0,1.32,2.08,2.08,0,0,0,.78,1.17c.52.47,1.4,1.12,6,3.83s12.8,7.49,17.27,10.05,5.16,2.9,5.75,3.06a5.64,5.64,0,0,0,1.69.09,12.1,12.1,0,0,0,2.1-.21c.77-.18,1.61-.52,6.45-3.3l3.42-2" transform="translate(-206.49 -271.84)"/><path class="cls-1" d="M264.7,456.32c-7.76,4.52-8.19,5-8.52,5.37a2.7,2.7,0,0,0-.61,2.54,2.08,2.08,0,0,0,.78,1.17c.52.48,1.41,1.12,6,3.84s12.84,7.51,17.31,10.08,5.18,2.91,5.78,3.07a5.62,5.62,0,0,0,1.69.09,11.28,11.28,0,0,0,2.1-.22c.78-.17,1.62-.51,6.47-3.3s13.72-8,18.24-10.86,4.68-3.22,4.85-3.72a2.29,2.29,0,0,0-.09-2c-.42-.88-1.44-2.05-7.47-5.18" transform="translate(-206.49 -271.84)"/><path class="cls-2" d="M374.71,337.52a3.68,3.68,0,0,1,0,.47Z" transform="translate(-206.49 -271.84)"/><path class="cls-3" d="M374.71,355.54a3.84,3.84,0,0,1,0,.48Z" transform="translate(-206.49 -271.84)"/><path class="cls-3" d="M374.71,373.56a3.84,3.84,0,0,1,0,.48Z" transform="translate(-206.49 -271.84)"/><path class="cls-3" d="M374.71,391.59a3.68,3.68,0,0,1,0,.47Z" transform="translate(-206.49 -271.84)"/><path class="cls-3" d="M374.71,409.61a3.84,3.84,0,0,1,0,.48Z" transform="translate(-206.49 -271.84)"/><path class="cls-3" d="M374.71,392.06v11.42c-.08.43-.23.72-1.06,1.31-.45.33-1.13.75-2.12,1.34s-1.93,1.15-3.32,2l-.23.14c-5.9,3.44-16.87,9.8-22.68,13.15-2.66,1.53-4.24,2.43-5.26,3V412.76c1-.49,2.56-1.34,5.3-2.88,5.86-3.31,17-9.76,22.77-13.14s6.16-3.65,6.37-4A1.67,1.67,0,0,0,374.71,392.06Z" transform="translate(-206.49 -271.84)"/><path class="cls-3" d="M361.93,334.33c.13-.57.12-1.59-.63-1.77s-1.23.72-1.37,1.29-.11,1.59.64,1.77S361.79,334.9,361.93,334.33Zm4.39-2.58c.14-.57.12-1.58-.63-1.76s-1.23.71-1.36,1.29-.12,1.58.63,1.76S366.18,332.33,366.32,331.75Zm2.4-3.06c-.14.57-.12,1.59.63,1.77s1.23-.72,1.36-1.29.12-1.59-.63-1.77S368.86,328.12,368.72,328.69Zm5.92-7.84v10.38c0,.44-.59,1.09-1.77,1.94l-1.41.81-3.62,2.09-27.79,16V340.61h0c.93-.47,2.5-1.34,5.36-3,5.87-3.33,17.14-9.86,22.93-13.24s6.07-3.59,6.32-4.26C374.66,320.36,374.65,320.6,374.64,320.85Z" transform="translate(-206.49 -271.84)"/><path class="cls-3" d="M372.85,371l.24.16Z" transform="translate(-206.49 -271.84)"/><path class="cls-3" d="M372.59,370.79l.09.06Z" transform="translate(-206.49 -271.84)"/><path class="cls-2" d="M374.42,372.37a3,3,0,0,1,.29,1.19V374a1.67,1.67,0,0,1-.23.68c-.21.34-.6.63-6.37,4l-5.16,3c-1.47.84-3,1.75-4.6,2.66-4.75,2.75-9.71,5.6-13,7.46-2.74,1.54-4.31,2.4-5.3,2.89a5.7,5.7,0,0,1-1.87.69,10,10,0,0,1-2.45.13,5.4,5.4,0,0,1-2-.78l-.1,0v-3.81a7.65,7.65,0,0,0,.84.42,6.52,6.52,0,0,0,1.65.46,5.73,5.73,0,0,0,1.9-.13c.71-.16,1.54-.41,6.46-3.15s13.93-8,18.71-10.79,5.36-3.17,5.53-3.8a1.51,1.51,0,0,0-.69-1.75l.23-.14,3.33-2,.35.24.05,0,.65.42.09.06.17.11.24.16.33.22A2.87,2.87,0,0,1,374.42,372.37Z" transform="translate(-206.49 -271.84)"/><path class="cls-3" d="M371.94,370.37l.65.42Z" transform="translate(-206.49 -271.84)"/><path class="cls-2" d="M374.71,338a1.67,1.67,0,0,1-.23.68c-.21.34-.6.63-6.37,4s-16.91,9.83-22.77,13.13c-2.74,1.55-4.31,2.4-5.3,2.89a5.7,5.7,0,0,1-1.87.69,10,10,0,0,1-2.45.13,5.22,5.22,0,0,1-2-.78l-.1-.05v-3.8a6.28,6.28,0,0,0,.84.41,6.13,6.13,0,0,0,1.65.46,5.48,5.48,0,0,0,1.9-.13c.71-.16,1.54-.41,6.46-3.15s13.93-8,18.71-10.79,5.36-3.17,5.53-3.79a1.49,1.49,0,0,0-.83-1.82l3.62-2.09.06,0c.58.44,1.37.9,1.9,1.28a2.78,2.78,0,0,1,1,1,3,3,0,0,1,.29,1.2Z" transform="translate(-206.49 -271.84)"/><path class="cls-2" d="M374.42,354.35a3,3,0,0,1,.29,1.19V356a1.72,1.72,0,0,1-.23.68c-.21.34-.6.62-6.37,4l-5.16,3c-1.47.84-3,1.75-4.6,2.66-4.75,2.74-9.71,5.6-13,7.46-2.74,1.54-4.31,2.39-5.3,2.88a5.7,5.7,0,0,1-1.87.69,10.55,10.55,0,0,1-2.45.14,5.4,5.4,0,0,1-2-.78l-.1-.05V372.9a6.83,6.83,0,0,0,.84.42,6.52,6.52,0,0,0,1.65.46,5.5,5.5,0,0,0,1.9-.14c.71-.15,1.54-.4,6.46-3.15s13.93-8,18.71-10.78,5.36-3.17,5.53-3.8a1.51,1.51,0,0,0-.69-1.75l.23-.14,3.33-1.95c.58.42,1.35.88,1.88,1.25A2.8,2.8,0,0,1,374.42,354.35Z" transform="translate(-206.49 -271.84)"/><path class="cls-2" d="M374.71,409.61v.48a1.72,1.72,0,0,1-.23.68c-.21.34-.6.63-6.37,4-1.44.85-3.22,1.88-5.16,3l-4.6,2.66c-4.75,2.75-9.71,5.6-13,7.46-2.74,1.54-4.31,2.39-5.3,2.88a5.83,5.83,0,0,1-1.87.7,10,10,0,0,1-2.45.13,5.4,5.4,0,0,1-2-.78l-.1-.05V427a6.83,6.83,0,0,0,.84.42,6.52,6.52,0,0,0,1.65.46,5.5,5.5,0,0,0,1.9-.14c.71-.15,1.54-.4,6.46-3.15s13.93-8,18.71-10.78,5.36-3.17,5.53-3.8a1.51,1.51,0,0,0-.69-1.75l.23-.14c1.39-.81,2.47-1.44,3.32-2,.58.43,1.36.89,1.89,1.26a2.8,2.8,0,0,1,1,1A3,3,0,0,1,374.71,409.61Z" transform="translate(-206.49 -271.84)"/><path class="cls-2" d="M374.42,390.4a3,3,0,0,1,.29,1.19v.47a1.67,1.67,0,0,1-.23.68c-.21.35-.6.63-6.37,4s-16.91,9.83-22.77,13.14c-2.74,1.54-4.31,2.39-5.3,2.88a5.7,5.7,0,0,1-1.87.69,10,10,0,0,1-2.45.13,5.13,5.13,0,0,1-2-.77l-.1-.05V409a7.65,7.65,0,0,0,.84.42,6.52,6.52,0,0,0,1.65.46,5.75,5.75,0,0,0,1.9-.14c.71-.15,1.54-.41,6.46-3.15s13.93-8,18.71-10.78,5.36-3.18,5.53-3.8a1.51,1.51,0,0,0-.69-1.75l.23-.14,3.33-2c.58.43,1.35.89,1.88,1.26A2.72,2.72,0,0,1,374.42,390.4Z" transform="translate(-206.49 -271.84)"/><path class="cls-4" d="M368.79,364.14c.13-.58.61-1.47,1.36-1.29s.77,1.19.63,1.76-.61,1.47-1.36,1.29S368.65,364.71,368.79,364.14Z" transform="translate(-206.49 -271.84)"/><path class="cls-5" d="M368.79,382.16c.13-.57.61-1.47,1.36-1.29s.77,1.19.63,1.77-.61,1.46-1.36,1.29S368.65,382.73,368.79,382.16Z" transform="translate(-206.49 -271.84)"/><path class="cls-5" d="M370.15,416.92c.75.18.77,1.19.63,1.76s-.61,1.47-1.36,1.29-.77-1.19-.63-1.76S369.4,416.74,370.15,416.92Z" transform="translate(-206.49 -271.84)"/><path class="cls-4" d="M369.35,330.46c-.75-.18-.77-1.2-.63-1.77s.61-1.47,1.36-1.29.77,1.19.63,1.77S370.1,330.64,369.35,330.46Z" transform="translate(-206.49 -271.84)"/><path class="cls-4" d="M365.76,365.43c.75.18.76,1.2.63,1.77s-.61,1.47-1.36,1.29a.83.83,0,0,1-.46-.3,2,2,0,0,1-.18-1.47,1.79,1.79,0,0,1,.95-1.28A.75.75,0,0,1,365.76,365.43Z" transform="translate(-206.49 -271.84)"/><path class="cls-4" d="M364.39,384.75a1.79,1.79,0,0,1,.95-1.28.75.75,0,0,1,.42,0c.75.18.76,1.19.63,1.76s-.61,1.47-1.36,1.29a.83.83,0,0,1-.46-.3A2,2,0,0,1,364.39,384.75Z" transform="translate(-206.49 -271.84)"/><path class="cls-4" d="M365.76,419.5c.75.18.76,1.2.63,1.77s-.61,1.47-1.36,1.29a.83.83,0,0,1-.46-.3,2,2,0,0,1-.18-1.47,1.81,1.81,0,0,1,.95-1.28A.85.85,0,0,1,365.76,419.5Z" transform="translate(-206.49 -271.84)"/><path class="cls-5" d="M365.69,330c.75.18.77,1.19.63,1.76s-.61,1.47-1.36,1.29-.77-1.19-.63-1.76S364.94,329.81,365.69,330Z" transform="translate(-206.49 -271.84)"/><path class="cls-3" d="M363,363.71l2.39,1.73a1.79,1.79,0,0,0-.95,1.28,2,2,0,0,0,.18,1.47l-2.75.12a.83.83,0,0,0-.46-.3.84.84,0,0,0-.81.26l-2.2-1.9C359.93,365.46,361.48,364.55,363,363.71Z" transform="translate(-206.49 -271.84)"/><path class="cls-3" d="M363,381.73l2.39,1.74a1.79,1.79,0,0,0-.95,1.28,2,2,0,0,0,.18,1.46l-2.75.12a.83.83,0,0,0-.46-.3.84.84,0,0,0-.81.26l-2.2-1.9C359.93,383.48,361.48,382.57,363,381.73Z" transform="translate(-206.49 -271.84)"/><path class="cls-3" d="M363,417.78l2.39,1.73a1.81,1.81,0,0,0-.95,1.28,2,2,0,0,0,.18,1.47l-2.75.12a.83.83,0,0,0-.46-.3.84.84,0,0,0-.81.26l-2.2-1.9Z" transform="translate(-206.49 -271.84)"/><path class="cls-5" d="M361.82,368.31a2,2,0,0,1,.18,1.46c-.14.58-.62,1.47-1.37,1.29s-.76-1.19-.63-1.76a2.31,2.31,0,0,1,.55-1,.84.84,0,0,1,.81-.26A.83.83,0,0,1,361.82,368.31Z" transform="translate(-206.49 -271.84)"/><path class="cls-4" d="M361.82,422.38a2,2,0,0,1,.18,1.47c-.14.57-.62,1.46-1.37,1.29s-.76-1.2-.63-1.77a2.26,2.26,0,0,1,.55-1,.84.84,0,0,1,.81-.26A.83.83,0,0,1,361.82,422.38Z" transform="translate(-206.49 -271.84)"/><path class="cls-4" d="M362,387.8c-.14.57-.62,1.47-1.37,1.29s-.76-1.2-.63-1.77a2.31,2.31,0,0,1,.55-1,.84.84,0,0,1,.81-.26.83.83,0,0,1,.46.3A2,2,0,0,1,362,387.8Z" transform="translate(-206.49 -271.84)"/><path class="cls-4" d="M359.93,333.85c.14-.57.62-1.47,1.37-1.29s.76,1.2.63,1.77-.61,1.47-1.36,1.29S359.8,334.43,359.93,333.85Z" transform="translate(-206.49 -271.84)"/><path class="cls-5" d="M355.55,395.65c-.14.58-.62,1.47-1.37,1.29a1,1,0,0,1-.66-.8,2.54,2.54,0,0,1,0-1c.14-.57.61-1.47,1.36-1.29S355.68,395.08,355.55,395.65Z" transform="translate(-206.49 -271.84)"/><path class="cls-2" d="M336.86,310.3c.38,0,.7.09,16.85,9.32-.38.24-.92.57-1.66,1-2.51,1.49-7.34,4.28-10.31,6s-4.06,2.33-4.87,2.48-1.34-.17-4.26-1.92-8.22-4.93-11-6.66c-.64-.4-1.15-.72-1.54-1,5.32-3.07,8.91-5.13,11.35-6.5,0,0,0,0,0,0C336.34,310.29,336.61,310.28,336.86,310.3Zm2.27,9.66c.35-.23.36-.29.35-.33s0-.08-.46-.32-1.21-.7-1.64-.93-.5-.24-.59-.2-.19.11-.56.32-1,.55-1.39.77-.43.29-.46.35a.11.11,0,0,0,0,.15,2.18,2.18,0,0,0,.46.31l1.39.85a2.4,2.4,0,0,0,.58.29.48.48,0,0,0,.29,0c.09,0,.2-.12.6-.37S338.78,320.19,339.13,320Z" transform="translate(-206.49 -271.84)"/><path class="cls-5" d="M353.23,360.91c-.14.58-.61,1.47-1.36,1.29s-.77-1.19-.63-1.76.61-1.47,1.36-1.29S353.37,360.34,353.23,360.91Z" transform="translate(-206.49 -271.84)"/><path class="cls-4" d="M348.2,361.6c.75.18.77,1.19.64,1.76s-.61,1.47-1.36,1.29-.77-1.19-.64-1.76S347.45,361.42,348.2,361.6Z" transform="translate(-206.49 -271.84)"/><path class="cls-5" d="M348.84,399.41c-.14.57-.61,1.47-1.36,1.29a.91.91,0,0,1-.66-.78,2.52,2.52,0,0,1,0-1c.14-.57.61-1.46,1.36-1.29.51.12.68.62.7,1.11A2.7,2.7,0,0,1,348.84,399.41Z" transform="translate(-206.49 -271.84)"/><path class="cls-5" d="M348.84,435.74c-.14.57-.61,1.47-1.36,1.29a.91.91,0,0,1-.66-.78,2.52,2.52,0,0,1,0-1c.14-.57.61-1.47,1.36-1.29S349,435.17,348.84,435.74Z" transform="translate(-206.49 -271.84)"/><path class="cls-5" d="M344.5,401.23a2.46,2.46,0,0,1-.05.78c-.14.58-.61,1.47-1.36,1.29s-.77-1.19-.64-1.76.62-1.47,1.37-1.29A1,1,0,0,1,344.5,401.23Z" transform="translate(-206.49 -271.84)"/><path class="cls-5" d="M344.5,437.56a2.46,2.46,0,0,1-.05.78c-.14.57-.61,1.47-1.36,1.29s-.77-1.19-.64-1.76.62-1.47,1.37-1.29A1,1,0,0,1,344.5,437.56Z" transform="translate(-206.49 -271.84)"/><path class="cls-5" d="M343.82,382.22c.75.18.76,1.2.63,1.77s-.61,1.47-1.36,1.29-.77-1.19-.64-1.77S343.07,382.05,343.82,382.22Z" transform="translate(-206.49 -271.84)"/><path class="cls-5" d="M344.45,366c-.14.57-.61,1.46-1.36,1.29s-.77-1.2-.64-1.77.62-1.47,1.37-1.29S344.58,365.39,344.45,366Z" transform="translate(-206.49 -271.84)"/><path class="cls-3" d="M344.45,366c.13-.58.12-1.59-.63-1.77s-1.23.72-1.37,1.29-.11,1.59.64,1.77S344.31,366.54,344.45,366Zm2.39-3.08c-.13.57-.11,1.58.64,1.76s1.22-.72,1.36-1.29.11-1.58-.64-1.76S347,362.31,346.84,362.89Zm5-.69c.75.18,1.22-.71,1.36-1.29s.12-1.58-.63-1.76-1.23.71-1.36,1.29S351.12,362,351.87,362.2ZM374.71,338v11.42a1.49,1.49,0,0,1-.15.45l-.11.15a1.83,1.83,0,0,1-.31.35,24.37,24.37,0,0,1-2.6,1.71L368.21,354l-.23.14c-5.9,3.44-16.87,9.8-22.68,13.15-2.66,1.53-4.24,2.43-5.26,3V358.69c1-.49,2.56-1.34,5.3-2.89,5.86-3.3,17-9.76,22.77-13.13s6.16-3.66,6.37-4A1.67,1.67,0,0,0,374.71,338Z" transform="translate(-206.49 -271.84)"/><path class="cls-3" d="M343.09,385.28c.75.18,1.22-.72,1.36-1.29s.12-1.59-.63-1.77-1.23.72-1.37,1.29S342.34,385.1,343.09,385.28Zm25.7-21.14c-.14.57-.12,1.58.63,1.76s1.22-.72,1.36-1.29.12-1.58-.63-1.76S368.92,363.56,368.79,364.14Zm5.92-8.12v11.41c-.11.59-.37.93-2.33,2.14l-.1.07-.74.45-3.33,2-.23.14c-5.9,3.44-16.87,9.81-22.68,13.15-2.66,1.53-4.24,2.43-5.26,3V376.71c1-.49,2.56-1.34,5.3-2.88,3.3-1.86,8.26-4.72,13-7.46l2.2,1.9a2.31,2.31,0,0,0-.55,1c-.13.57-.12,1.58.63,1.76s1.23-.71,1.37-1.29a2,2,0,0,0-.18-1.46l2.75-.12a.83.83,0,0,0,.46.3c.75.18,1.22-.72,1.36-1.29s.12-1.59-.63-1.77a.75.75,0,0,0-.42,0L363,363.71l5.16-3c5.77-3.38,6.16-3.66,6.37-4A1.72,1.72,0,0,0,374.71,356Z" transform="translate(-206.49 -271.84)"/><path class="cls-3" d="M344.5,401.23a1,1,0,0,0-.68-1c-.75-.18-1.23.72-1.37,1.29s-.11,1.58.64,1.76,1.22-.71,1.36-1.29A2.46,2.46,0,0,0,344.5,401.23Zm3-.53c.75.18,1.22-.72,1.36-1.29a2.7,2.7,0,0,0,.06-.66c0-.49-.19-1-.7-1.11-.75-.17-1.22.72-1.36,1.29a2.52,2.52,0,0,0,0,1A.91.91,0,0,0,347.48,400.7Zm6.7-3.76c.75.18,1.23-.71,1.37-1.29s.11-1.58-.64-1.76-1.22.72-1.36,1.29a2.54,2.54,0,0,0,0,1A1,1,0,0,0,354.18,396.94Zm14.61-14.78c-.14.57-.12,1.59.63,1.77s1.22-.72,1.36-1.29.12-1.59-.63-1.77S368.92,381.59,368.79,382.16Zm5.92-8.12v11.41c-.12.65-.42,1-3,2.54l-.05,0-.15.09-3.33,2-.23.14c-5.9,3.44-16.87,9.8-22.68,13.15-2.66,1.53-4.24,2.43-5.26,3V394.74c1-.49,2.56-1.35,5.3-2.89,3.3-1.86,8.26-4.71,13-7.46l2.2,1.9a2.31,2.31,0,0,0-.55,1c-.13.57-.12,1.59.63,1.77s1.23-.72,1.37-1.29a2,2,0,0,0-.18-1.47l2.75-.12a.83.83,0,0,0,.46.3c.75.18,1.22-.72,1.36-1.29s.12-1.58-.63-1.76a.75.75,0,0,0-.42,0L363,381.73l5.16-3c5.77-3.37,6.16-3.66,6.37-4A1.67,1.67,0,0,0,374.71,374Z" transform="translate(-206.49 -271.84)"/><path class="cls-3" d="M343.09,439.63c.75.18,1.22-.72,1.36-1.29a2.46,2.46,0,0,0,.05-.78,1,1,0,0,0-.68-1c-.75-.18-1.23.71-1.37,1.29S342.34,439.45,343.09,439.63Zm4.39-2.6c.75.18,1.22-.72,1.36-1.29s.11-1.59-.64-1.77-1.22.72-1.36,1.29a2.52,2.52,0,0,0,0,1A.91.91,0,0,0,347.48,437Zm21.31-18.82c-.14.57-.12,1.58.63,1.76s1.22-.71,1.36-1.29.12-1.58-.63-1.76S368.92,417.64,368.79,418.21Zm5.92-8.12V421.5c-.16.88-.65,1.21-6.5,4.62l-9,5.26c-5,2.91-10.36,6-13.86,8-2.66,1.53-4.24,2.43-5.26,3V430.78c1-.49,2.56-1.34,5.3-2.88,3.3-1.86,8.26-4.71,13-7.46l2.2,1.9a2.26,2.26,0,0,0-.55,1c-.13.57-.12,1.59.63,1.77s1.23-.72,1.37-1.29a2,2,0,0,0-.18-1.47l2.75-.12a.83.83,0,0,0,.46.3c.75.18,1.22-.72,1.36-1.29s.12-1.59-.63-1.77a.85.85,0,0,0-.42,0L363,417.78c1.94-1.13,3.72-2.16,5.16-3,5.77-3.37,6.16-3.66,6.37-4A1.72,1.72,0,0,0,374.71,410.09Z" transform="translate(-206.49 -271.84)"/><path class="cls-3" d="M340,430.78v11.59a5.58,5.58,0,0,1-2.08.82,9.42,9.42,0,0,1-2.72-.14,5.12,5.12,0,0,1-1.56-.65V430.83a5.4,5.4,0,0,0,2,.78,10,10,0,0,0,2.45-.13A5.83,5.83,0,0,0,340,430.78Z" transform="translate(-206.49 -271.84)"/><path class="cls-3" d="M340,412.76v11.58h0a5.48,5.48,0,0,1-2.08.81,9.09,9.09,0,0,1-2.72-.13,5.12,5.12,0,0,1-1.56-.65V412.81a5.13,5.13,0,0,0,2,.77,10,10,0,0,0,2.45-.13A5.7,5.7,0,0,0,340,412.76Z" transform="translate(-206.49 -271.84)"/><path class="cls-3" d="M340,394.74v11.58h0a5.67,5.67,0,0,1-2.08.81,9.79,9.79,0,0,1-2.72-.13,6,6,0,0,1-1.56-.65h0V394.78a5.4,5.4,0,0,0,2,.78,10,10,0,0,0,2.45-.13A5.7,5.7,0,0,0,340,394.74Z" transform="translate(-206.49 -271.84)"/><path class="cls-3" d="M340,376.71v11.58h0a5.48,5.48,0,0,1-2.08.81,9.09,9.09,0,0,1-2.72-.13,5.22,5.22,0,0,1-1.56-.65V376.76a5.4,5.4,0,0,0,2,.78,10.55,10.55,0,0,0,2.45-.14A5.7,5.7,0,0,0,340,376.71Z" transform="translate(-206.49 -271.84)"/><path class="cls-3" d="M340,358.69v11.58h0a5.48,5.48,0,0,1-2.08.81,9.79,9.79,0,0,1-2.72-.13,5.41,5.41,0,0,1-1.56-.65V358.73a5.22,5.22,0,0,0,2,.78,10,10,0,0,0,2.45-.13A5.7,5.7,0,0,0,340,358.69Z" transform="translate(-206.49 -271.84)"/><path class="cls-3" d="M340.05,340.61v11.44a5.86,5.86,0,0,1-6.42,0V340.73a4.42,4.42,0,0,0,1.06.51,6.49,6.49,0,0,0,1.83.21,11.87,11.87,0,0,0,2-.22A5.56,5.56,0,0,0,340.05,340.61Z" transform="translate(-206.49 -271.84)"/><path class="cls-6" d="M368.67,392c-.17.62-.74,1-5.53,3.8s-13.79,8-18.71,10.78-5.75,3-6.46,3.15a5.75,5.75,0,0,1-1.9.14,6.52,6.52,0,0,1-1.65-.46,7.65,7.65,0,0,1-.84-.42V406.3l.1.05h0a6,6,0,0,0,1.56.65,9.79,9.79,0,0,0,2.72.13,5.67,5.67,0,0,0,2.08-.81h0c1-.53,2.6-1.43,5.26-3,5.81-3.35,16.78-9.71,22.68-13.15A1.51,1.51,0,0,1,368.67,392Z" transform="translate(-206.49 -271.84)"/><path class="cls-6" d="M368.67,355.91c-.17.63-.74,1-5.53,3.8s-13.79,8-18.71,10.78-5.75,3-6.46,3.15a5.5,5.5,0,0,1-1.9.14,6.52,6.52,0,0,1-1.65-.46,6.83,6.83,0,0,1-.84-.42v-2.65l.1.06a5.41,5.41,0,0,0,1.56.65,9.79,9.79,0,0,0,2.72.13,5.48,5.48,0,0,0,2.08-.81h0c1-.53,2.6-1.43,5.26-3,5.81-3.35,16.78-9.71,22.68-13.15A1.51,1.51,0,0,1,368.67,355.91Z" transform="translate(-206.49 -271.84)"/><path class="cls-6" d="M368.67,410c-.17.63-.74,1-5.53,3.8s-13.79,8-18.71,10.78-5.75,3-6.46,3.15a5.5,5.5,0,0,1-1.9.14,6.52,6.52,0,0,1-1.65-.46,6.83,6.83,0,0,1-.84-.42v-2.64l.1.05a5.12,5.12,0,0,0,1.56.65,9.09,9.09,0,0,0,2.72.13,5.48,5.48,0,0,0,2.08-.81h0c1-.53,2.6-1.43,5.26-3,5.81-3.35,16.78-9.71,22.68-13.15A1.51,1.51,0,0,1,368.67,410Z" transform="translate(-206.49 -271.84)"/><path class="cls-6" d="M368.67,373.93c-.17.63-.74,1-5.53,3.8s-13.79,8-18.71,10.79-5.75,3-6.46,3.15a5.73,5.73,0,0,1-1.9.13,6.52,6.52,0,0,1-1.65-.46,7.65,7.65,0,0,1-.84-.42v-2.64l.1.05a5.22,5.22,0,0,0,1.56.65,9.09,9.09,0,0,0,2.72.13,5.48,5.48,0,0,0,2.08-.81h0c1-.53,2.6-1.43,5.26-3,5.81-3.34,16.78-9.71,22.68-13.15A1.51,1.51,0,0,1,368.67,373.93Z" transform="translate(-206.49 -271.84)"/><path class="cls-6" d="M340.05,352.05l27.79-16a1.49,1.49,0,0,1,.83,1.82c-.17.62-.74,1-5.53,3.79s-13.79,8-18.71,10.79-5.75,3-6.46,3.15a5.48,5.48,0,0,1-1.9.13,6.13,6.13,0,0,1-1.65-.46,6.28,6.28,0,0,1-.84-.41v-2.82l.05,0A5.86,5.86,0,0,0,340.05,352.05Z" transform="translate(-206.49 -271.84)"/><path class="cls-4" d="M331.44,342c.13.57.11,1.59-.64,1.77s-1.22-.72-1.36-1.29-.11-1.59.64-1.77S331.3,341.46,331.44,342Z" transform="translate(-206.49 -271.84)"/><path class="cls-2" d="M330.67,292.81a1.41,1.41,0,0,1,.18.14c.48.44.21,1-.82,1.55l-32.44,18.59a7.33,7.33,0,0,1-7.86.18l-32.1-18.53c-1.37-.79-1.38-1.28-1.26-1.65a1.19,1.19,0,0,1,.11-.26h0a1.46,1.46,0,0,1,.57-.56l33.59-19.15c2.2-1.25,3.77-1.12,5.17-.11Zm-19.15,1.34c.05-.19,0-.39-2.81-2.1s-8.22-5-11.18-6.66-3.41-1.86-3.9-1.85-1,.19-3.78,1.74-7.77,4.48-10.6,6.11-3.46,1.94-3.67,2.24-.07.45,1.24,1.32c.39.26.9.58,1.54,1,2.76,1.73,8.07,4.91,11,6.66s3.44,2.07,4.25,1.92,1.91-.78,4.87-2.48,7.81-4.5,10.32-6c.73-.44,1.26-.76,1.65-1C311.39,294.43,311.48,294.29,311.52,294.15Z" transform="translate(-206.49 -271.84)"/><path class="cls-3" d="M329.22,360.27v77.78L296.85,457.4V379.45Zm-7.71,30c.38-1.12.68-2.33.26-9.86l-.66.38c-13,7.49-14.46,8.17-15.45,9.05s-1.53,2-1.61,11.69C320.69,392.4,321.14,391.36,321.51,390.23Z" transform="translate(-206.49 -271.84)"/><path class="cls-5" d="M327.05,339.43c.13.57.12,1.58-.63,1.76s-1.23-.71-1.37-1.29-.11-1.58.64-1.76S326.91,338.85,327.05,339.43Z" transform="translate(-206.49 -271.84)"/><path class="cls-3" d="M326.42,341.19c.75-.18.76-1.19.63-1.76s-.61-1.47-1.36-1.29-.77,1.19-.64,1.76S325.67,341.37,326.42,341.19Zm5,.84c-.14-.57-.61-1.47-1.36-1.29s-.77,1.19-.64,1.77.61,1.47,1.36,1.29S331.57,342.6,331.44,342Zm2.19-1.3v11.36l-.05,0v-3.31a2.84,2.84,0,0,0-1-2.14c-.84-.63-2.35-1.57-5.07-3.18-6.15-3.64-18.43-10.7-24.78-14.4l-1.17-.67V322c5.1,3.2,17,10,23.79,14C330.43,338.88,332.6,340.15,333.63,340.73Z" transform="translate(-206.49 -271.84)"/><path class="cls-7" d="M352,316.64c2.77,1.71,2.86,1.91,2.81,2.1s-.14.28-1.08.88c-16.15-9.23-16.47-9.3-16.85-9.32s-.52,0-5.41,2.73a.34.34,0,0,0,0-.1V313c-2.44,1.37-6,3.43-11.35,6.5-1.31-.87-1.4-1.09-1.24-1.32s.85-.62,3.67-2.24,7.83-4.56,10.59-6.11,3.29-1.73,3.78-1.74.95.15,3.91,1.85S349.21,314.92,352,316.64Z" transform="translate(-206.49 -271.84)"/><polygon class="cls-5" points="107.67 119.39 107.67 121.3 106.42 122.01 106.42 120.08 107.67 119.39"/><polygon class="cls-4" points="107.67 116.38 107.67 118.29 106.42 119 106.42 117.07 107.67 116.38"/><polygon class="cls-4" points="104.34 121.27 104.34 123.18 100.75 125.19 100.75 123.26 102 122.57 104.34 121.27"/><polygon class="cls-5" points="104.34 118.26 104.34 120.17 100.75 122.18 100.75 120.25 102 119.56 104.34 118.26"/><path class="cls-2" d="M293.6,285.71c.37,0,.69.09,16.84,9.32-.39.25-.92.57-1.65,1-2.51,1.49-7.35,4.28-10.32,6s-4.06,2.33-4.87,2.48-1.34-.17-4.25-1.92-8.23-4.93-11-6.66c-.64-.4-1.15-.72-1.54-1C292.8,285.71,293.22,285.68,293.6,285.71Zm2.26,9.66c.35-.23.36-.29.35-.33s0-.07-.45-.32-1.21-.7-1.64-.93-.51-.23-.59-.2-.19.11-.57.32-1,.55-1.39.77-.42.29-.46.35,0,.11,0,.15a2.18,2.18,0,0,0,.46.31l1.4.85a2.07,2.07,0,0,0,.58.29.45.45,0,0,0,.28,0c.1,0,.2-.12.6-.36S295.51,295.6,295.86,295.37Z" transform="translate(-206.49 -271.84)"/><polygon class="cls-2" points="100.99 66.44 95.55 69.66 95.55 63.61 100.99 66.44"/><path class="cls-2" d="M307.23,395.09V397l3.59-2V393.1l-2.34,1.3Zm3.59-3.09v-1.91l-2.34,1.3-1.25.69V394Zm2.08-3.1v1.93l1.25-.71v-1.91Zm8.21-8.15.66-.38c.42,7.53.12,8.74-.26,9.86s-.82,2.17-17.46,11.26c.08-9.72.61-10.81,1.61-11.69S308.11,388.24,321.11,380.75Zm-8.21,11.16v1.93l1.25-.71v-1.91Z" transform="translate(-206.49 -271.84)"/><polygon class="cls-2" points="95.55 63.61 95.55 69.66 68.62 85.61 63.08 82.53 95.55 63.61"/><path class="cls-3" d="M301.54,322v6.39l-1.86-1.05-.56-.32v-6.68A17.09,17.09,0,0,0,301.54,322Z" transform="translate(-206.49 -271.84)"/><path class="cls-8" d="M374.67,318.9c0,.37,0,.78,0,1.23-.25.67-.63.93-6.32,4.26s-17.06,9.91-22.93,13.24c-2.86,1.63-4.43,2.5-5.36,3h0a5.56,5.56,0,0,1-1.54.62,11.87,11.87,0,0,1-2,.22,6.49,6.49,0,0,1-1.83-.21,4.42,4.42,0,0,1-1.06-.51c-1-.58-3.2-1.85-8.3-4.8-6.77-3.91-18.69-10.76-23.79-14a17.09,17.09,0,0,1-2.42-1.66v-.1a5.82,5.82,0,0,1,.51-2.53c-.11.37-.1.86,1.27,1.65L333,337.86a7.35,7.35,0,0,0,7.87-.18l32.44-18.59c1-.6,1.3-1.11.81-1.55A1.48,1.48,0,0,1,374.67,318.9Z" transform="translate(-206.49 -271.84)"/><path class="cls-2" d="M300.26,316.89a.1.1,0,0,1,.05,0l31.07-17.71,2.53-1.44c2.19-1.25,3.77-1.12,5.17-.11l34.85,19.81a.86.86,0,0,1,.18.14c.49.44.22.95-.81,1.55l-32.44,18.59a7.35,7.35,0,0,1-7.87.18L300.9,319.33c-1.37-.79-1.38-1.28-1.27-1.65a1.59,1.59,0,0,1,.12-.27A1.34,1.34,0,0,1,300.26,316.89Zm21.37,3.63c2.76,1.73,8.07,4.9,11,6.66s3.44,2.07,4.26,1.92,1.9-.78,4.87-2.48,7.8-4.5,10.31-6c.74-.44,1.28-.77,1.66-1,.94-.6,1-.74,1.08-.88s0-.39-2.81-2.1-8.23-5-11.18-6.66-3.42-1.86-3.91-1.85-1,.19-3.78,1.74-7.77,4.48-10.59,6.11-3.47,1.94-3.67,2.24-.07.45,1.24,1.32C320.48,319.8,321,320.12,321.63,320.52Z" transform="translate(-206.49 -271.84)"/><path class="cls-3" d="M325.07,299.8c5.71-3.33,6.07-3.59,6.32-4.26,0,.23,0,.46,0,.72v2.88l-31.07,17.71a.1.1,0,0,0-.05,0,1.34,1.34,0,0,0-.51.52,1.59,1.59,0,0,0-.12.27,5.82,5.82,0,0,0-.51,2.53v5.9l-.77.44h0l-1.57-.88V316c.93-.48,2.51-1.35,5.37-3C308,309.71,319.29,303.18,325.07,299.8Z" transform="translate(-206.49 -271.84)"/><path class="cls-3" d="M295.24,316.64a5.44,5.44,0,0,0,1.54-.62v9.66c-4.31-2.39-5.08-2.54-6.15-1.93l-.27.15v-7.76h0a5.18,5.18,0,0,0,1.06.52,6.56,6.56,0,0,0,1.84.21A11.87,11.87,0,0,0,295.24,316.64Z" transform="translate(-206.49 -271.84)"/><path class="cls-5" d="M288.17,317.44c.14.57.12,1.59-.63,1.77s-1.23-.72-1.36-1.29-.12-1.59.63-1.77S288,316.87,288.17,317.44Z" transform="translate(-206.49 -271.84)"/><path class="cls-4" d="M288.17,322.75c.14.57.12,1.58-.63,1.76s-1.23-.71-1.36-1.29-.12-1.58.63-1.76S288,322.17,288.17,322.75Z" transform="translate(-206.49 -271.84)"/><path class="cls-3" d="M288.13,462.82c0,1.67-.41,2.27-1.24,1.81L278.63,460c-6.48-3.65-17.13-9.74-22.78-13-3.34-1.94-4.93-2.9-5.71-3.42a2.23,2.23,0,0,1-.86-2c0-1.57,0-5.24,0-14.27,0-14.83,0-44.11.14-58.84s.42-14.91.64-15a1.67,1.67,0,0,1,.62-.18,5.61,5.61,0,0,1,.71,0,1.48,1.48,0,0,1,.74.23c.35.2.87.58,6.58,3.87s16.62,9.47,22.32,12.79,6.2,3.76,6.53,4.14a2.54,2.54,0,0,1,.53.93,38.23,38.23,0,0,1,.06,4.7l-32.36-18.5-2.3-1.31v11.16l2.3,1.3,32.37,18.31v6.24L282.75,394l-27-15.43-2.3-1.32v11.17l2.3,1.3L288.13,408v6.71l-32.37-18.5-2.3-1.32v11.16l2.3,1.31,32.33,18.28h0l0,0V432l-.06,0-32.31-18.46-2.3-1.32V423.3l2.29,1.3h0L288,442.84l.13.07v6.88l-.2-.11L255.76,431.3l-2.3-1.32v11.16l2.3,1.3,32.37,18.31Z" transform="translate(-206.49 -271.84)"/><path class="cls-3" d="M282.7,323.14l4.5,2.56-2.45,1.4-2.05-1.18Z" transform="translate(-206.49 -271.84)"/><polygon class="cls-4" points="77.41 179.57 77.41 181.5 76.16 180.79 76.16 178.88 77.41 179.57"/><polygon class="cls-4" points="77.41 161.73 77.41 163.66 76.16 162.95 76.16 161.04 77.41 161.73"/><polygon class="cls-4" points="77.41 144.52 77.41 146.45 76.16 145.74 76.16 143.83 77.41 144.52"/><polygon class="cls-4" points="77.41 126.86 77.41 128.79 76.16 128.07 76.16 126.16 77.41 126.86"/><polygon class="cls-4" points="77.41 109.66 77.41 111.59 76.16 110.88 76.16 108.96 77.41 109.66"/><path class="cls-4" d="M283.78,314.84c.14.57.12,1.58-.63,1.76s-1.23-.71-1.36-1.29-.12-1.58.63-1.76S283.64,314.26,283.78,314.84Z" transform="translate(-206.49 -271.84)"/><path class="cls-5" d="M283.75,320c.25.87.09,2.24-1,1.84h0c0-.4,0-.77,0-1.11a1.48,1.48,0,0,0-.56-1.36,1.41,1.41,0,0,0-.18-.14l-.06,0C282.55,318.21,283.49,319.12,283.75,320Z" transform="translate(-206.49 -271.84)"/><path class="cls-3" d="M282.7,323.14v5.13l-3.86,2.2c0-1-.61-1.7-1.46-1a2.19,2.19,0,0,0-.59,2.13L274.44,333c-.1-2.1-2.55-.79-2.06,1.17l-2.33,1.33c-.18-2-2.48-.7-2.08,1.19L248.11,348v-5.5c.93-.48,2.5-1.35,5.36-3,5.87-3.33,17.14-9.86,22.93-13.24s6.07-3.59,6.32-4.26c0,.23,0,.47,0,.72Z" transform="translate(-206.49 -271.84)"/><path class="cls-3" d="M281.79,315.31c.13.58.61,1.47,1.36,1.29s.77-1.19.63-1.76-.61-1.47-1.36-1.29S281.65,314.74,281.79,315.31Zm8.57,8.59-3.16,1.8-4.5-2.56v-.42c0-.25,0-.49,0-.72a.48.48,0,0,0,0-.12h0c1.11.4,1.27-1,1-1.84s-1.2-1.83-1.82-.8l-23.66-13.45v-8.4c5.12,3.19,17,10.05,23.79,13.95,5.09,2.94,7.27,4.21,8.3,4.79h0Zm-2.82-4.69c.75-.18.77-1.2.63-1.77s-.61-1.47-1.36-1.29-.77,1.19-.63,1.77S286.79,319.39,287.54,319.21Zm.63,3.54c-.14-.58-.61-1.47-1.36-1.29s-.77,1.19-.63,1.76.61,1.47,1.36,1.29S288.31,323.32,288.17,322.75Z" transform="translate(-206.49 -271.84)"/><polygon class="cls-4" points="75.07 178.27 75.07 180.2 73.82 179.49 73.82 177.58 75.07 178.27"/><polygon class="cls-4" points="75.07 160.43 75.07 162.36 73.82 161.65 73.82 159.74 75.07 160.43"/><polygon class="cls-4" points="73.82 144.44 73.82 142.53 75.07 143.22 75.07 145.15 73.82 144.44"/><polygon class="cls-4" points="73.82 126.78 73.82 124.86 75.07 125.56 75.07 127.49 73.82 126.78"/><polygon class="cls-4" points="73.82 109.58 73.82 107.67 75.07 108.36 75.07 110.29 73.82 109.58"/><polygon class="cls-4" points="71.48 178.19 71.48 176.28 72.73 176.97 72.73 178.9 71.48 178.19"/><polygon class="cls-4" points="72.73 159.13 72.73 161.06 71.48 160.35 71.48 158.44 72.73 159.13"/><polygon class="cls-4" points="71.48 143.14 71.48 141.23 72.73 141.92 72.73 143.85 71.48 143.14"/><polygon class="cls-4" points="72.73 124.26 72.73 126.19 71.48 125.48 71.48 123.56 72.73 124.26"/><polygon class="cls-4" points="72.73 107.06 72.73 108.99 71.48 108.28 71.48 106.37 72.73 107.06"/><path class="cls-7" d="M293.6,285.71c-.38,0-.8,0-16.78,9.24-1.31-.87-1.4-1.09-1.24-1.32s.85-.62,3.67-2.24,7.83-4.56,10.6-6.11,3.29-1.73,3.78-1.74.94.15,3.9,1.85,8.41,4.94,11.18,6.66,2.86,1.91,2.81,2.1-.13.28-1.08.88C294.29,285.8,294,285.73,293.6,285.71Z" transform="translate(-206.49 -271.84)"/><path class="cls-5" d="M278.84,330.47l-2,1.17a2.19,2.19,0,0,1,.59-2.13C278.23,328.77,278.83,329.49,278.84,330.47Z" transform="translate(-206.49 -271.84)"/><polygon class="cls-5" points="69.73 175.31 69.73 177.19 53.33 167.85 53.33 166.2 69.73 175.31"/><polygon class="cls-5" points="69.73 157.47 69.73 159.35 53.33 150.01 53.33 148.36 69.73 157.47"/><polygon class="cls-5" points="69.73 140.26 69.73 142.15 53.33 132.8 53.33 131.15 69.73 140.26"/><polygon class="cls-5" points="69.73 122.59 69.73 124.48 53.33 115.13 53.33 113.49 69.73 122.59"/><path class="cls-5" d="M276.21,377.22v1.89l-16.4-9.34v-1.58l.07,0Z" transform="translate(-206.49 -271.84)"/><path class="cls-5" d="M274.44,333l-2.06,1.17C271.89,332.19,274.34,330.88,274.44,333Z" transform="translate(-206.49 -271.84)"/><path class="cls-5" d="M270.05,335.48,268,336.67C267.57,334.78,269.87,333.47,270.05,335.48Z" transform="translate(-206.49 -271.84)"/><path class="cls-2" d="M244.92,312.17c.38,0,.7.09,16.85,9.32-.38.24-.92.57-1.66,1-2.5,1.49-7.34,4.28-10.31,6s-4.06,2.33-4.87,2.48-1.34-.17-4.26-1.92-8.22-4.93-11-6.66c-.64-.4-1.15-.72-1.54-1C244.13,312.17,244.55,312.14,244.92,312.17Zm2.27,9.66c.35-.23.36-.28.35-.33s0-.07-.46-.32-1.21-.7-1.64-.93-.5-.23-.59-.2-.19.11-.56.32-1,.56-1.39.77-.43.29-.46.35,0,.11,0,.15a2.18,2.18,0,0,0,.46.31l1.39.85a2.4,2.4,0,0,0,.58.29.48.48,0,0,0,.29,0c.09,0,.2-.12.6-.36S246.84,322.06,247.19,321.83Z" transform="translate(-206.49 -271.84)"/><path class="cls-3" d="M276.21,449v-1.88L259.81,438v1.65Zm3-.22-1.25-.69V450l1.25.71Zm2.34,3.23V450.1l-1.25-.69v1.91Zm4.19-1v6.11l-28.11-16v-6.4Zm-1.85,2.32V451.4l-1.25-.69v1.91Z" transform="translate(-206.49 -271.84)"/><path class="cls-3" d="M276.21,431.18V429.3l-16.4-9.11v1.65Zm1.75,1,1.25.71V431l-1.25-.69Zm3.59,2v-1.93l-1.25-.69v1.91Zm2.34,1.3v-1.93l-1.25-.69v1.91Zm1.85-2.32v6.12l-28.11-16v-6.41Z" transform="translate(-206.49 -271.84)"/><path class="cls-3" d="M279.21,380.82v-1.93L278,378.2v1.91Zm-3-1.71v-1.89l-16.33-9.06-.07,0v1.65Zm4.09.39v1.91l1.25.71v-1.93Zm3.59,3.92v-1.93l-1.25-.7v1.92Zm-26.26-18.64,28.11,16.32v6.11l-28.11-16Z" transform="translate(-206.49 -271.84)"/><path class="cls-3" d="M276.21,396.31v-1.89l-16.4-9.1V387Zm3,1.71v-1.93l-1.25-.7v1.92Zm2.34-.63-1.25-.7v1.92l1.25.71Zm2.34,3.23v-1.93l-1.25-.7v1.91Zm1.85-2.32v6.11l-28.11-16V382Z" transform="translate(-206.49 -271.84)"/><path class="cls-3" d="M276.21,414v-1.89L259.81,403v1.65Zm5.34,1.07-1.25-.69v1.91l1.25.71Zm2.34,3.23v-1.93l-1.25-.69v1.91Zm-4.68-4.53-1.25-.69V415l1.25.71Zm6.53,2.21v6.12l-28.11-16v-6.41Z" transform="translate(-206.49 -271.84)"/><path class="cls-3" d="M258.27,297.39v8.4l-2.42-1.38v-8.69A17.66,17.66,0,0,0,258.27,297.39Z" transform="translate(-206.49 -271.84)"/><path class="cls-2" d="M282,319.27a1.41,1.41,0,0,1,.18.14c.49.44.22,1-.81,1.55l-32.44,18.59a7.35,7.35,0,0,1-7.87.18L209,321.2c-1.37-.79-1.38-1.28-1.26-1.65a1.19,1.19,0,0,1,.11-.26h0l0,0,.54-.54L242,299.57c2.19-1.25,3.77-1.12,5.17-.11l8.71,5h0l2.42,1.38,23.66,13.45Zm-19.14,1.34c0-.19,0-.38-2.81-2.1s-8.23-5-11.18-6.66S245.44,310,245,310s-1,.19-3.77,1.74-7.78,4.48-10.6,6.11-3.46,1.94-3.67,2.24-.07.45,1.24,1.32c.39.26.9.58,1.54,1,2.76,1.73,8.07,4.91,11,6.66s3.45,2.07,4.26,1.92,1.9-.78,4.87-2.48,7.81-4.5,10.31-6c.74-.44,1.28-.77,1.66-1C262.71,320.89,262.81,320.75,262.85,320.61Z" transform="translate(-206.49 -271.84)"/><path class="cls-3" d="M285.74,457.12V451L257.63,434.7v6.4Zm-30-25.82,32.17,18.38.2.11v11l-32.37-18.31Z" transform="translate(-206.49 -271.84)"/><path class="cls-3" d="M285.74,422.08V416l-28.11-16.31v6.41Zm-30-25.83,32.37,18.5v11l0,0h0L255.76,407.4Z" transform="translate(-206.49 -271.84)"/><path class="cls-3" d="M285.74,404.41V398.3L257.63,382v6.41Zm-3-10.4,5.38,3.07v11l-32.37-18.31V378.58Z" transform="translate(-206.49 -271.84)"/><path class="cls-3" d="M285.74,387.21V381.1l-28.11-16.32v6.41Zm-30-25.83,32.36,18.5c0,2.22,0,5.51,0,10.44v.52l-32.37-18.31Z" transform="translate(-206.49 -271.84)"/><path class="cls-3" d="M285.74,439.29v-6.12l-28.11-16.31v6.41Zm-30-25.83,32.31,18.46.06,0v11l-.13-.07-32.24-18.23V413.46Z" transform="translate(-206.49 -271.84)"/><path class="cls-8" d="M257.63,294.74l32.1,18.53a7.33,7.33,0,0,0,7.86-.18L330,294.5c1-.59,1.3-1.11.82-1.55a1.5,1.5,0,0,1,.55,1.36c0,.37,0,.78,0,1.23-.25.67-.61.93-6.32,4.26S308,309.71,302.15,313c-2.86,1.63-4.44,2.5-5.37,3a5.44,5.44,0,0,1-1.54.62,11.87,11.87,0,0,1-2,.22,6.56,6.56,0,0,1-1.84-.21,5.18,5.18,0,0,1-1.06-.52c-1-.58-3.21-1.85-8.3-4.79-6.76-3.9-18.67-10.76-23.79-13.95a17.66,17.66,0,0,1-2.42-1.67v-.1a5.78,5.78,0,0,1,.63-2.79,1.19,1.19,0,0,0-.11.26C256.25,293.46,256.26,294,257.63,294.74Z" transform="translate(-206.49 -271.84)"/><polygon class="cls-2" points="49.28 159.47 49.28 170.61 46.98 169.31 46.98 158.15 49.28 159.47"/><path class="cls-2" d="M255.76,413.46v11.13a0,0,0,0,0,0,0l-2.29-1.3V412.14Z" transform="translate(-206.49 -271.84)"/><polygon class="cls-2" points="49.28 124.42 49.28 135.57 46.98 134.26 46.98 123.1 49.28 124.42"/><polygon class="cls-2" points="49.28 106.75 49.28 117.9 46.98 116.6 46.98 105.43 49.28 106.75"/><polygon class="cls-2" points="49.28 89.55 49.28 100.7 46.98 99.4 46.98 88.24 49.28 89.55"/><path class="cls-2" d="M248.11,348,268,336.67l2.08-1.19,2.33-1.33,2.06-1.17,2.35-1.34,2-1.17,3.86-2.2,2.05-1.17,2.45-1.4,3.16-1.8.27-.15c1.07-.61,1.84-.46,6.15,1.93l1.57.88.77.43.56.32,1.86,1.05,1.17.67c6.35,3.7,18.63,10.76,24.78,14.4,2.72,1.61,4.23,2.55,5.07,3.18a2.84,2.84,0,0,1,1,2.14c0,.8,0,1.92,0,3.29l0,0v90.31c0,.45,0,.84,0,1.19a1.8,1.8,0,0,1-.15.9,1.58,1.58,0,0,1-.46.48l-9.94,6-14,8.39c-7.35,4.4-14.3,8.55-17.35,10.36l-.09.06-1,.57-.22.13s0,0,0,0a.51.51,0,0,0,.16-.24c.07-.22.07-.55.07-16.24s0-46.72,0-62.57-.07-16.51-.25-17.16a9.47,9.47,0,0,0-.7-1.68,2.1,2.1,0,0,0-.38-.59,3.41,3.41,0,0,0-.57-.53c-.27-.19-.62-.37-6.88-4l-24.94-14.37c-6.48-3.73-7.26-4.17-7.81-4.43a3,3,0,0,0-1.14-.35.88.88,0,0,0-.37,0l.58-.33Zm81.11,90.07V360.27l-32.37,19.18V457.4ZM302,341.49l5.44-3.22L302,335.44l-32.47,18.92,5.54,3.08Z" transform="translate(-206.49 -271.84)"/><path class="cls-3" d="M289.41,470.79c-.25,0-.53-.06-6.78-3.57l-.59-.33-34.85-20.15a.86.86,0,0,1-.51-.88v-1.12h0V351.32a9.78,9.78,0,0,1,.1-2.25,1.48,1.48,0,0,1,.49-.61.94.94,0,0,1,.26-.14h0a.88.88,0,0,1,.37,0,3,3,0,0,1,1.14.35c.55.26,1.33.7,7.81,4.43l24.94,14.37c6.26,3.61,6.61,3.79,6.88,4a3.41,3.41,0,0,1,.57.53,2.1,2.1,0,0,1,.38.59,9.47,9.47,0,0,1,.7,1.68c.18.65.23,1.31.25,17.16s0,46.89,0,62.57,0,16-.07,16.24a.51.51,0,0,1-.16.24l-.1.07-.15.09A1.65,1.65,0,0,1,289.41,470.79Zm-1.29-90.91a38.23,38.23,0,0,0-.06-4.7,2.54,2.54,0,0,0-.53-.93c-.33-.38-.82-.83-6.53-4.14s-16.6-9.51-22.32-12.79-6.23-3.67-6.58-3.87a1.48,1.48,0,0,0-.74-.23,5.61,5.61,0,0,0-.71,0,1.67,1.67,0,0,0-.62.18c-.22.12-.5.3-.64,15s-.14,44-.14,58.84c0,9,0,12.7,0,14.27a2.23,2.23,0,0,0,.86,2c.78.52,2.37,1.48,5.71,3.42,5.65,3.28,16.3,9.37,22.78,13l8.26,4.66c.83.46,1.24-.14,1.24-1.81v-72.5C288.13,385.39,288.13,382.1,288.12,379.88Z" transform="translate(-206.49 -271.84)"/><path class="cls-3" d="M243.78,433.48a10.42,10.42,0,0,0,2.37-.12h.51v11.38h0V445h-.22a3.73,3.73,0,0,1-.44.08,9.42,9.42,0,0,1-2.72-.14,5.38,5.38,0,0,1-1.56-.64V432.7A5.22,5.22,0,0,0,243.78,433.48Z" transform="translate(-206.49 -271.84)"/><path class="cls-3" d="M241.74,426.25V414.68a5.22,5.22,0,0,0,2,.78,10.35,10.35,0,0,0,2.43-.14h.45V427h-.5l-.14,0a9.09,9.09,0,0,1-2.72-.13A5.22,5.22,0,0,1,241.74,426.25Z" transform="translate(-206.49 -271.84)"/><path class="cls-3" d="M241.74,408.23V396.65a5.22,5.22,0,0,0,2,.78,10,10,0,0,0,2.45-.13l.11,0h.32V409h-.41l-.23,0a9.79,9.79,0,0,1-2.72-.13A5.52,5.52,0,0,1,241.74,408.23Z" transform="translate(-206.49 -271.84)"/><path class="cls-3" d="M241.74,390.2V378.63a5.22,5.22,0,0,0,2,.78,10,10,0,0,0,2.45-.14l.26,0h.17v11.69h-.27a2.38,2.38,0,0,1-.37.06,9.09,9.09,0,0,1-2.72-.13A5.22,5.22,0,0,1,241.74,390.2Z" transform="translate(-206.49 -271.84)"/><path class="cls-3" d="M243.78,361.38a10,10,0,0,0,2.45-.13l.43-.09v11.69h-.11a2.64,2.64,0,0,1-.53.11,9.43,9.43,0,0,1-2.72-.13,5.52,5.52,0,0,1-1.56-.65V360.6A5.22,5.22,0,0,0,243.78,361.38Z" transform="translate(-206.49 -271.84)"/><path class="cls-3" d="M241.69,342.6a4.42,4.42,0,0,0,1.06.51,6.49,6.49,0,0,0,1.83.21,10.91,10.91,0,0,0,2-.22,5.56,5.56,0,0,0,1.54-.62V348h0l-.58.33h0a.94.94,0,0,0-.26.14,1.48,1.48,0,0,0-.49.61,9.78,9.78,0,0,0-.1,2.25v3.29a6,6,0,0,1-5-.65Z" transform="translate(-206.49 -271.84)"/><path class="cls-4" d="M237.56,398.54c-.14-.57-.12-1.59.63-1.77s1.22.72,1.36,1.29.12,1.59-.63,1.77S237.69,399.11,237.56,398.54Z" transform="translate(-206.49 -271.84)"/><path class="cls-5" d="M237.5,344.38c-.13-.58-.11-1.59.64-1.77s1.22.72,1.36,1.29.12,1.59-.63,1.77S237.64,345,237.5,344.38Z" transform="translate(-206.49 -271.84)"/><path class="cls-5" d="M237.56,362.49c-.14-.57-.12-1.58.63-1.76s1.22.71,1.36,1.29.12,1.58-.63,1.76S237.69,363.06,237.56,362.49Z" transform="translate(-206.49 -271.84)"/><path class="cls-5" d="M237.56,380.52c-.14-.58-.12-1.59.63-1.77s1.22.72,1.36,1.29.12,1.59-.63,1.77S237.69,381.09,237.56,380.52Z" transform="translate(-206.49 -271.84)"/><path class="cls-5" d="M237.56,416.56c-.14-.57-.12-1.58.63-1.76s1.22.72,1.36,1.29.12,1.58-.63,1.76S237.69,417.14,237.56,416.56Z" transform="translate(-206.49 -271.84)"/><path class="cls-4" d="M237.56,434.59c-.14-.57-.12-1.59.63-1.77s1.22.72,1.36,1.29.12,1.59-.63,1.77S237.69,435.16,237.56,434.59Z" transform="translate(-206.49 -271.84)"/><path class="cls-4" d="M237.5,349.68c-.13-.57-.11-1.58.64-1.76s1.22.71,1.36,1.29.12,1.58-.63,1.76S237.64,350.26,237.5,349.68Z" transform="translate(-206.49 -271.84)"/><path class="cls-5" d="M237.56,367.8c-.14-.57-.12-1.59.63-1.77s1.22.72,1.36,1.29.12,1.59-.63,1.77S237.69,368.37,237.56,367.8Z" transform="translate(-206.49 -271.84)"/><path class="cls-4" d="M237.56,385.82c-.14-.57-.12-1.58.63-1.76s1.22.71,1.36,1.29.12,1.58-.63,1.76S237.69,386.39,237.56,385.82Z" transform="translate(-206.49 -271.84)"/><path class="cls-5" d="M237.56,403.85c-.14-.58-.12-1.59.63-1.77s1.22.72,1.36,1.29.12,1.59-.63,1.77S237.69,404.42,237.56,403.85Z" transform="translate(-206.49 -271.84)"/><path class="cls-4" d="M237.56,421.87c-.14-.57-.12-1.59.63-1.77s1.22.72,1.36,1.29.12,1.59-.63,1.77S237.69,422.44,237.56,421.87Z" transform="translate(-206.49 -271.84)"/><path class="cls-5" d="M237.56,439.89c-.14-.57-.12-1.58.63-1.76s1.22.72,1.36,1.29.12,1.58-.63,1.76S237.69,440.47,237.56,439.89Z" transform="translate(-206.49 -271.84)"/><path class="cls-5" d="M233.17,432c-.14-.57-.12-1.58.63-1.76s1.22.72,1.36,1.29.12,1.59-.63,1.76S233.3,432.56,233.17,432Z" transform="translate(-206.49 -271.84)"/><path class="cls-5" d="M233.11,347.08c-.13-.57-.11-1.59.64-1.77s1.22.72,1.36,1.29.12,1.59-.63,1.77S233.25,347.65,233.11,347.08Z" transform="translate(-206.49 -271.84)"/><path class="cls-5" d="M233.17,365.19c-.14-.57-.12-1.58.63-1.76s1.22.72,1.36,1.29.12,1.58-.63,1.76S233.3,365.77,233.17,365.19Z" transform="translate(-206.49 -271.84)"/><path class="cls-4" d="M233.17,383.22c-.14-.57-.12-1.59.63-1.77s1.22.72,1.36,1.29.12,1.59-.63,1.77S233.3,383.79,233.17,383.22Z" transform="translate(-206.49 -271.84)"/><path class="cls-5" d="M233.17,401.24c-.14-.57-.12-1.58.63-1.76s1.22.71,1.36,1.29.12,1.58-.63,1.76S233.3,401.81,233.17,401.24Z" transform="translate(-206.49 -271.84)"/><path class="cls-5" d="M233.17,419.27c-.14-.58-.12-1.59.63-1.77s1.22.72,1.36,1.29.12,1.59-.63,1.77S233.3,419.84,233.17,419.27Z" transform="translate(-206.49 -271.84)"/><path class="cls-4" d="M233.17,437.29c-.14-.57-.12-1.59.63-1.77s1.22.72,1.36,1.29.12,1.59-.63,1.77S233.3,437.86,233.17,437.29Z" transform="translate(-206.49 -271.84)"/><path class="cls-4" d="M235.11,341.3c.13.57.12,1.58-.63,1.76s-1.23-.71-1.37-1.29-.11-1.58.64-1.76S235,340.73,235.11,341.3Z" transform="translate(-206.49 -271.84)"/><path class="cls-3" d="M238.19,366c-.75.18-.77,1.2-.63,1.77s.61,1.47,1.36,1.29.77-1.2.63-1.77S238.94,365.85,238.19,366Zm0-5.3c-.75.18-.77,1.19-.63,1.76s.61,1.47,1.36,1.29.77-1.19.63-1.76S238.94,360.55,238.19,360.73Zm-4.39,2.7c-.75.18-.77,1.19-.63,1.76s.61,1.47,1.36,1.29.77-1.19.63-1.76S234.55,363.25,233.8,363.43Zm2.49,5.67c-5.69-3.27-16.56-9.51-22.45-12.91l-.39-.22L210,354l-.43-.27V341.9c.93.58,2.47,1.51,5.14,3.08,5.65,3.32,16.34,9.58,22,12.83,2.51,1.44,4,2.29,5,2.79v11.58C240.82,371.69,239.26,370.8,236.29,369.1Z" transform="translate(-206.49 -271.84)"/><path class="cls-3" d="M238.19,378.75c-.75.18-.77,1.19-.63,1.77s.61,1.46,1.36,1.29.77-1.2.63-1.77S238.94,378.57,238.19,378.75Zm0,5.31c-.75.18-.77,1.19-.63,1.76s.61,1.47,1.36,1.29.77-1.19.63-1.76S238.94,383.88,238.19,384.06Zm-4.39-2.61c-.75.18-.77,1.2-.63,1.77s.61,1.47,1.36,1.29.77-1.2.63-1.77S234.55,381.27,233.8,381.45ZM210,372l-.43-.27V359.93c.93.57,2.47,1.5,5.14,3.07,5.65,3.33,16.34,9.58,22,12.83,2.51,1.44,4,2.29,5,2.8V390.2c-.92-.48-2.48-1.38-5.45-3.08-5.69-3.27-16.56-9.5-22.45-12.91l-.39-.22Z" transform="translate(-206.49 -271.84)"/><path class="cls-3" d="M238.19,396.77c-.75.18-.77,1.2-.63,1.77s.61,1.47,1.36,1.29.77-1.19.63-1.77S238.94,396.6,238.19,396.77Zm-.63,7.08c.13.57.61,1.46,1.36,1.29s.77-1.2.63-1.77-.61-1.47-1.36-1.29S237.42,403.27,237.56,403.85Zm-3.76-4.37c-.75.18-.77,1.19-.63,1.76s.61,1.47,1.36,1.29.77-1.19.63-1.76S234.55,399.3,233.8,399.48Zm-20-7.24-.39-.23c-1.45-.83-2.56-1.48-3.41-2l-.44-.26V378c.93.58,2.47,1.5,5.14,3.07,5.65,3.33,16.34,9.58,22,12.83,2.51,1.44,4,2.29,5,2.8v11.58c-.92-.49-2.48-1.39-5.45-3.09C230.6,401.87,219.73,395.64,213.84,392.24Z" transform="translate(-206.49 -271.84)"/><path class="cls-3" d="M238.19,438.13c-.75.18-.77,1.19-.63,1.76s.61,1.47,1.36,1.29.77-1.19.63-1.76S238.94,438,238.19,438.13Zm0-5.31c-.75.18-.77,1.2-.63,1.77s.61,1.47,1.36,1.29.77-1.2.63-1.77S238.94,432.64,238.19,432.82Zm-5-.84c.13.58.61,1.47,1.36,1.29s.77-1.19.63-1.76-.61-1.47-1.36-1.29S233,431.41,233.17,432Zm0,5.31c.13.57.61,1.47,1.36,1.29s.77-1.19.63-1.77-.61-1.46-1.36-1.29S233,436.72,233.17,437.29Zm-18.43-20.22c5.65,3.33,16.34,9.58,22,12.83,2.51,1.44,4,2.29,5,2.8v11.58c-.92-.49-2.48-1.39-5.45-3.09l-14.6-8.38-8.24-4.75c-1.71-1-2.95-1.71-3.85-2.25V414C210.53,414.57,212.07,415.49,214.74,417.07Z" transform="translate(-206.49 -271.84)"/><path class="cls-3" d="M237.5,349.68c.14.58.61,1.47,1.37,1.29s.76-1.19.63-1.76-.61-1.47-1.36-1.29S237.37,349.11,237.5,349.68Zm2-5.78c-.14-.57-.61-1.47-1.36-1.29s-.77,1.19-.64,1.77.61,1.47,1.37,1.29S239.63,344.47,239.5,343.9Zm-6.39-2.13c.14.58.62,1.47,1.37,1.29s.76-1.19.63-1.76-.61-1.47-1.36-1.29S233,341.2,233.11,341.77Zm2,4.83c-.14-.57-.61-1.47-1.36-1.29s-.77,1.2-.64,1.77.62,1.47,1.37,1.29S235.24,347.18,235.11,346.6Zm-1.72-8.8c5.1,2.95,7.27,4.22,8.3,4.8V354l-27.82-15.83-4.27-2.43V323.84C214.7,327,226.62,333.89,233.39,337.8Z" transform="translate(-206.49 -271.84)"/><path class="cls-7" d="M260,318.51c2.77,1.72,2.86,1.91,2.81,2.1s-.14.28-1.08.88c-16.15-9.23-16.47-9.3-16.85-9.32s-.79,0-16.77,9.24c-1.31-.87-1.4-1.09-1.24-1.32s.85-.62,3.67-2.24,7.83-4.56,10.6-6.11S244.46,310,245,310s1,.15,3.91,1.85S257.27,316.79,260,318.51Z" transform="translate(-206.49 -271.84)"/><path class="cls-6" d="M213.84,356.19c5.89,3.4,16.76,9.64,22.45,12.91,3,1.7,4.53,2.59,5.45,3.08a5.52,5.52,0,0,0,1.56.65A9.43,9.43,0,0,0,246,373a2.64,2.64,0,0,0,.53-.11h.11v2.53h-.13l-.5.13a5.5,5.5,0,0,1-1.9.14,6.52,6.52,0,0,1-1.65-.46c-.47-.19-.8-.38-5.42-3s-13.52-7.8-18.15-10.52a48.6,48.6,0,0,1-5.23-3.21,2,2,0,0,1-.46-.5.94.94,0,0,1-.1-.56C213.14,357.11,213.2,356.78,213.84,356.19Z" transform="translate(-206.49 -271.84)"/><path class="cls-6" d="M213.84,374.21c5.89,3.41,16.76,9.64,22.45,12.91,3,1.7,4.53,2.6,5.45,3.08a5.22,5.22,0,0,0,1.56.65A9.09,9.09,0,0,0,246,391a2.38,2.38,0,0,0,.37-.06h.27v2.53h-.29l-.34.09a5.48,5.48,0,0,1-1.9.13,6.52,6.52,0,0,1-1.65-.46c-.47-.19-.8-.37-5.42-3s-13.52-7.81-18.15-10.52a49.14,49.14,0,0,1-5.23-3.22,2,2,0,0,1-.46-.49.94.94,0,0,1-.1-.56C213.14,375.14,213.2,374.81,213.84,374.21Z" transform="translate(-206.49 -271.84)"/><path class="cls-6" d="M213.84,392.24c5.89,3.4,16.76,9.63,22.45,12.9,3,1.7,4.53,2.6,5.45,3.09a5.52,5.52,0,0,0,1.56.65A9.79,9.79,0,0,0,246,409l.23,0h.41v2.54h-.42l-.21.05a5.75,5.75,0,0,1-1.9.14,6.52,6.52,0,0,1-1.65-.46c-.47-.19-.8-.38-5.42-3s-13.52-7.8-18.15-10.52a48.6,48.6,0,0,1-5.23-3.21,2.13,2.13,0,0,1-.46-.5.94.94,0,0,1-.1-.56C213.14,393.16,213.2,392.83,213.84,392.24Z" transform="translate(-206.49 -271.84)"/><path class="cls-6" d="M218.91,415.71a49.14,49.14,0,0,1-5.23-3.22,2.13,2.13,0,0,1-.46-.49,1,1,0,0,1-.1-.57c0-.25.08-.57.72-1.17,5.89,3.41,16.76,9.64,22.45,12.91,3,1.7,4.53,2.6,5.45,3.08a5.22,5.22,0,0,0,1.56.65A9.09,9.09,0,0,0,246,427l.14,0h.5v2.55h-.51l-.12,0a5.73,5.73,0,0,1-1.9.13,6.52,6.52,0,0,1-1.65-.46c-.47-.19-.8-.37-5.42-3S223.54,418.42,218.91,415.71Z" transform="translate(-206.49 -271.84)"/><path class="cls-6" d="M213.68,340.39a2,2,0,0,1-.46-.49.94.94,0,0,1-.1-.56c0-.25.08-.59.75-1.2h0L241.69,354a6,6,0,0,0,5,.65v2.7a5.43,5.43,0,0,1-.63.18,5.75,5.75,0,0,1-1.9.14,7,7,0,0,1-1.65-.46c-.47-.2-.8-.38-5.42-3s-13.52-7.81-18.15-10.52S213.93,340.61,213.68,340.39Z" transform="translate(-206.49 -271.84)"/><path class="cls-3" d="M239.55,416.09c-.14-.57-.61-1.47-1.36-1.29s-.77,1.19-.63,1.76.61,1.47,1.36,1.29S239.69,416.66,239.55,416.09Zm-1.36,4c-.75.18-.77,1.2-.63,1.77s.61,1.47,1.36,1.29.77-1.19.63-1.77S238.94,419.93,238.19,420.1Zm-4.39-2.6c-.75.18-.77,1.19-.63,1.77s.61,1.47,1.36,1.29.77-1.2.63-1.77S234.55,417.32,233.8,417.5ZM210,408.05l-.44-.26V396c.93.57,2.47,1.49,5.14,3.07,5.65,3.33,16.34,9.58,22,12.83,2.51,1.44,4,2.29,5,2.8v11.57c-.92-.48-2.48-1.38-5.45-3.08-5.69-3.27-16.56-9.5-22.45-12.91l-.39-.22C212,409.2,210.89,408.56,210,408.05Z" transform="translate(-206.49 -271.84)"/><path class="cls-3" d="M207.18,333.27V322.18a17.09,17.09,0,0,0,2.42,1.66V335.7a8.45,8.45,0,0,1-2.27-2s0,0,0,0A.77.77,0,0,1,207.18,333.27Z" transform="translate(-206.49 -271.84)"/><path class="cls-3" d="M207,351.72V338.93a2,2,0,0,0,.2.81,3.73,3.73,0,0,0,.85,1.11,9.4,9.4,0,0,0,1.53,1v11.82C207.45,352.44,207.21,352.18,207,351.72Z" transform="translate(-206.49 -271.84)"/><path class="cls-3" d="M207,405.79V393.07a2.06,2.06,0,0,0,.2.74,3.73,3.73,0,0,0,.85,1.11A9.84,9.84,0,0,0,209.6,396v11.77l-1.26-.74-.17-.11C207.31,406.34,207.15,406.12,207,405.79Z" transform="translate(-206.49 -271.84)"/><path class="cls-8" d="M209.6,323.84a17.09,17.09,0,0,1-2.42-1.66v-.1a5.78,5.78,0,0,1,.63-2.79,1.19,1.19,0,0,0-.11.26c-.12.37-.11.86,1.26,1.65l32.09,18.53a7.35,7.35,0,0,0,7.87-.18L281.36,321c1-.59,1.3-1.11.81-1.55a1.48,1.48,0,0,1,.56,1.36c0,.34,0,.71,0,1.11a.48.48,0,0,1,0,.12c-.25.67-.62.94-6.32,4.26s-17.06,9.91-22.93,13.24c-2.86,1.63-4.43,2.5-5.36,3a5.56,5.56,0,0,1-1.54.62,10.91,10.91,0,0,1-2,.22,6.49,6.49,0,0,1-1.83-.21,4.42,4.42,0,0,1-1.06-.51c-1-.58-3.2-1.85-8.3-4.8C226.62,333.89,214.7,327,209.6,323.84Z" transform="translate(-206.49 -271.84)"/><path class="cls-2" d="M207,374.68a1.72,1.72,0,0,1,.07-.37c.07-.24.2-.52,2.91-2.29h0l3.42,2,.39.22c-.64.6-.7.93-.72,1.18a.94.94,0,0,0,.1.56,2,2,0,0,0,.46.49,49.14,49.14,0,0,0,5.23,3.22c4.63,2.71,13.53,7.85,18.15,10.52s4.95,2.84,5.42,3a6.52,6.52,0,0,0,1.65.46,5.48,5.48,0,0,0,1.9-.13l.34-.09h.29v3.83h-.32l-.11,0a10,10,0,0,1-2.45.13,5.22,5.22,0,0,1-2-.78c-1-.51-2.49-1.36-5-2.8-5.66-3.25-16.35-9.5-22-12.83-2.67-1.57-4.21-2.49-5.14-3.07a9.4,9.4,0,0,1-1.53-1.05,3.73,3.73,0,0,1-.85-1.11,2.11,2.11,0,0,1-.2-.74V375C207,374.88,207,374.78,207,374.68Z" transform="translate(-206.49 -271.84)"/><path class="cls-2" d="M207.1,338.27c.07-.24.2-.52,2.91-2.29l-1-.62a5.38,5.38,0,0,1-1.69-1.65,8.45,8.45,0,0,0,2.27,2l4.27,2.43h0c-.67.61-.73.95-.75,1.2a.94.94,0,0,0,.1.56,2,2,0,0,0,.46.49c.25.22.6.51,5.23,3.22s13.53,7.86,18.15,10.52,4.95,2.84,5.42,3a7,7,0,0,0,1.65.46,5.75,5.75,0,0,0,1.9-.14,5.43,5.43,0,0,0,.63-.18v3.85l-.43.09a10,10,0,0,1-2.45.13,5.22,5.22,0,0,1-2-.78c-1-.5-2.49-1.35-5-2.79-5.66-3.25-16.35-9.51-22-12.83-2.67-1.57-4.21-2.5-5.14-3.08a9.4,9.4,0,0,1-1.53-1,3.73,3.73,0,0,1-.85-1.11,2,2,0,0,1-.2-.81A1.87,1.87,0,0,1,207.1,338.27Z" transform="translate(-206.49 -271.84)"/><path class="cls-2" d="M207.1,356.29c.07-.24.2-.52,2.93-2.3l3.42,2,.39.22c-.64.59-.7.92-.72,1.17a.94.94,0,0,0,.1.56,2,2,0,0,0,.46.5,48.6,48.6,0,0,0,5.23,3.21c4.63,2.72,13.53,7.86,18.15,10.52s4.95,2.85,5.42,3a6.52,6.52,0,0,0,1.65.46,5.5,5.5,0,0,0,1.9-.14l.5-.13h.13v3.85h-.17l-.26,0a10,10,0,0,1-2.45.14,5.22,5.22,0,0,1-2-.78c-1-.51-2.49-1.36-5-2.8-5.66-3.25-16.35-9.5-22-12.83-2.67-1.57-4.21-2.5-5.14-3.07a9.84,9.84,0,0,1-1.53-1.06,3.49,3.49,0,0,1-.85-1.11,2,2,0,0,1-.2-.81A1.93,1.93,0,0,1,207.1,356.29Z" transform="translate(-206.49 -271.84)"/><path class="cls-2" d="M207.1,410.36c.07-.24.2-.52,2.94-2.31.85.51,2,1.15,3.41,2l.39.22c-.64.6-.7.92-.72,1.17a1,1,0,0,0,.1.57,2.13,2.13,0,0,0,.46.49,49.14,49.14,0,0,0,5.23,3.22c4.63,2.71,13.53,7.85,18.15,10.51s4.95,2.85,5.42,3a6.52,6.52,0,0,0,1.65.46,5.73,5.73,0,0,0,1.9-.13l.12,0h.51v3.8h-.51a10.42,10.42,0,0,1-2.37.12,5.22,5.22,0,0,1-2-.78c-1-.51-2.49-1.36-5-2.8-5.66-3.25-16.35-9.5-22-12.83-2.67-1.58-4.21-2.5-5.14-3.07a9.84,9.84,0,0,1-1.53-1.06,3.49,3.49,0,0,1-.85-1.11,2.11,2.11,0,0,1-.16-.46v0a1.27,1.27,0,0,1,0-.32A2,2,0,0,1,207.1,410.36Z" transform="translate(-206.49 -271.84)"/><path class="cls-3" d="M207,369.74V357a2,2,0,0,0,.2.81,3.49,3.49,0,0,0,.85,1.11,9.84,9.84,0,0,0,1.53,1.06v11.81C207.45,370.46,207.21,370.2,207,369.74Z" transform="translate(-206.49 -271.84)"/><path class="cls-2" d="M207.1,392.34c.07-.24.2-.52,2.91-2.29l0,0c.85.5,2,1.15,3.41,2l.39.23c-.64.59-.7.92-.72,1.17a.94.94,0,0,0,.1.56,2.13,2.13,0,0,0,.46.5,48.6,48.6,0,0,0,5.23,3.21c4.63,2.72,13.53,7.86,18.15,10.52s4.95,2.85,5.42,3a6.52,6.52,0,0,0,1.65.46,5.75,5.75,0,0,0,1.9-.14l.21-.05h.42v3.81h-.45a10.35,10.35,0,0,1-2.43.14,5.22,5.22,0,0,1-2-.78c-1-.51-2.49-1.36-5-2.8-5.66-3.25-16.35-9.5-22-12.83-2.67-1.58-4.21-2.5-5.14-3.07a9.84,9.84,0,0,1-1.53-1.06,3.73,3.73,0,0,1-.85-1.11,2.06,2.06,0,0,1-.2-.74h0V393A1.9,1.9,0,0,1,207.1,392.34Z" transform="translate(-206.49 -271.84)"/><path class="cls-3" d="M207,423.82V411a1.27,1.27,0,0,0,0,.32v0a2.11,2.11,0,0,0,.16.46,3.49,3.49,0,0,0,.85,1.11A9.84,9.84,0,0,0,209.6,414v11.81C207.45,424.53,207.21,424.27,207,423.82Z" transform="translate(-206.49 -271.84)"/><path class="cls-3" d="M207,375.05a2.11,2.11,0,0,0,.2.74,3.73,3.73,0,0,0,.85,1.11A9.4,9.4,0,0,0,209.6,378v11.82c-2.15-1.29-2.39-1.55-2.58-2Z" transform="translate(-206.49 -271.84)"/><polygon class="cls-9" points="102 122.56 100.75 123.26 100.75 125.19 104.34 123.18 104.34 121.27 102 122.56"/><polygon class="cls-9" points="102 119.56 100.75 120.25 100.75 122.18 104.34 120.17 104.34 118.26 102 119.56"/><polygon class="cls-9" points="107.67 119.39 107.67 121.3 106.42 122.01 106.42 120.08 107.67 119.39"/><polygon class="cls-9" points="107.67 116.38 107.67 118.29 106.42 119 106.42 117.07 107.67 116.38"/><line class="cls-10" x1="114.63" y1="108.92" x2="115.29" y2="108.54"/><path class="cls-10" d="M304.06,401.49c16.63-9.08,17.08-10.13,17.46-11.26s.68-2.33.26-9.86" transform="translate(-206.49 -271.84)"/><path class="cls-10" d="M304.06,401.49c.08-9.72.61-10.8,1.6-11.69s2.45-1.55,15.45-9.05" transform="translate(-206.49 -271.84)"/><path class="cls-9" d="M333.59,348.75c0,.89-.06,2.18,0,3.74" transform="translate(-206.49 -271.84)"/><path class="cls-11" d="M302.72,329c6.35,3.71,18.63,10.77,24.77,14.41,2.72,1.61,4.24,2.55,5.08,3.17" transform="translate(-206.49 -271.84)"/><path class="cls-11" d="M332.57,346.61a2.91,2.91,0,0,1,1,2.14" transform="translate(-206.49 -271.84)"/><line class="cls-9" x1="127.06" y1="80.21" x2="127.15" y2="80.26"/><line class="cls-9" x1="95.05" y1="56.53" x2="95.05" y2="50.14"/><line class="cls-9" x1="91.85" y1="54.75" x2="91.85" y2="54.75"/><path class="cls-11" d="M290.64,323.75c1.28-.73,2.12-.36,9.05,3.56l3,1.72" transform="translate(-206.49 -271.84)"/><polygon class="cls-9" points="76.16 180.78 76.16 178.87 77.41 179.57 77.41 181.5 76.16 180.78"/><polygon class="cls-9" points="73.82 179.49 73.82 177.57 75.07 178.27 75.07 180.2 73.82 179.49"/><polygon class="cls-9" points="71.48 178.19 71.48 176.28 72.73 176.97 72.73 178.9 71.48 178.19"/><polygon class="cls-9" points="53.33 166.2 53.33 167.84 69.73 177.19 69.73 175.3 53.33 166.2"/><polyline class="cls-9" points="49.28 159.46 46.98 158.15 46.98 169.31 49.28 170.61"/><polygon class="cls-9" points="79.26 185.29 79.26 179.18 51.15 162.86 51.15 169.27 79.26 185.29"/><polygon class="cls-9" points="76.16 162.95 76.16 161.03 77.41 161.73 77.41 163.66 76.16 162.95"/><polygon class="cls-9" points="73.82 161.65 73.82 159.74 75.07 160.43 75.07 162.36 73.82 161.65"/><polygon class="cls-9" points="71.48 160.35 71.48 158.44 72.73 159.13 72.73 161.06 71.48 160.35"/><polygon class="cls-9" points="53.33 148.36 53.33 150.01 69.73 159.35 69.73 157.46 53.33 148.36"/><polyline class="cls-9" points="49.28 141.63 46.98 140.31 46.98 151.47 49.28 152.77"/><polygon class="cls-9" points="79.26 167.45 79.26 161.34 51.15 145.03 51.15 151.43 79.26 167.45"/><polygon class="cls-9" points="76.16 145.74 76.16 143.83 77.41 144.52 77.41 146.45 76.16 145.74"/><polygon class="cls-9" points="73.82 144.44 73.82 142.53 75.07 143.22 75.07 145.15 73.82 144.44"/><polygon class="cls-9" points="71.48 143.14 71.48 141.23 72.73 141.92 72.73 143.85 71.48 143.14"/><polygon class="cls-9" points="53.33 131.15 53.33 132.8 69.73 142.14 69.73 140.26 53.33 131.15"/><polyline class="cls-9" points="49.28 124.42 46.98 123.1 46.98 134.26 49.28 135.57"/><polygon class="cls-9" points="79.26 150.25 79.26 144.13 51.15 127.82 51.15 134.23 79.26 150.25"/><polyline class="cls-9" points="81.65 142.91 49.28 124.42 49.28 135.57 81.65 153.87"/><polygon class="cls-9" points="76.16 128.07 76.16 126.16 77.41 126.85 77.41 128.78 76.16 128.07"/><polygon class="cls-9" points="73.82 126.77 73.82 124.86 75.07 125.56 75.07 127.48 73.82 126.77"/><polygon class="cls-9" points="71.48 125.47 71.48 123.56 72.73 124.25 72.73 126.18 71.48 125.47"/><polygon class="cls-9" points="53.33 113.48 53.33 115.13 69.73 124.48 69.73 122.59 53.33 113.48"/><polyline class="cls-9" points="49.28 106.75 46.98 105.43 46.98 116.59 49.28 117.9"/><polyline class="cls-9" points="81.65 125.25 49.28 106.75 49.28 117.9 81.65 136.21"/><polygon class="cls-9" points="76.16 110.87 76.16 108.96 77.41 109.66 77.41 111.58 76.16 110.87"/><polygon class="cls-9" points="73.82 109.57 73.82 107.66 75.07 108.36 75.07 110.28 73.82 109.57"/><polygon class="cls-9" points="71.48 108.27 71.48 106.36 72.73 107.06 72.73 108.99 71.48 108.27"/><polygon class="cls-9" points="53.33 96.29 53.33 97.93 69.73 107.28 69.73 105.39 53.33 96.29"/><polyline class="cls-9" points="49.28 89.55 46.98 88.23 46.98 99.39 49.28 100.7"/><polygon class="cls-9" points="79.26 115.38 79.26 109.27 51.15 92.95 51.15 99.36 79.26 115.38"/><polyline class="cls-9" points="81.65 108.05 49.28 89.55 49.28 100.7 81.65 119.01"/><line class="cls-11" x1="40.96" y1="76.53" x2="84.15" y2="51.91"/><polygon class="cls-9" points="90.37 107.61 122.74 88.44 122.74 166.22 90.37 185.57 90.37 107.61"/><polyline class="cls-9" points="81.45 177.85 49.28 159.46 49.28 170.61 81.65 188.92"/><polyline class="cls-9" points="81.65 160.12 49.28 141.63 49.28 152.77 81.52 171.01"/><line class="cls-9" x1="81.52" y1="171.01" x2="81.65" y2="171.08"/><line class="cls-9" x1="81.45" y1="177.85" x2="81.65" y2="177.96"/><path class="cls-9" d="M288.07,432v0" transform="translate(-206.49 -271.84)"/><path class="cls-9" d="M288.09,425.71v0" transform="translate(-206.49 -271.84)"/><path class="cls-9" d="M288.12,414.75h0" transform="translate(-206.49 -271.84)"/><path class="cls-9" d="M288.13,408h0" transform="translate(-206.49 -271.84)"/><line class="cls-9" x1="81.65" y1="108.05" x2="81.65" y2="108.05"/><line class="cls-9" x1="81.65" y1="119.01" x2="81.65" y2="119.01"/><path class="cls-11" d="M286.9,464.63q1.23.69,1.23-1.8" transform="translate(-206.49 -271.84)"/><path class="cls-11" d="M250.15,443.53a2.3,2.3,0,0,1-.87-2.08" transform="translate(-206.49 -271.84)"/><path class="cls-11" d="M288.13,397.08v-6.76c0-14.73,0-14.9-.06-15.14a2.76,2.76,0,0,0-.54-.93c-.32-.38-.82-.82-6.52-4.14s-16.61-9.5-22.32-12.79-6.24-3.66-6.58-3.86a1.42,1.42,0,0,0-.75-.23,4.09,4.09,0,0,0-.7,0,1.48,1.48,0,0,0-.62.19c-.23.11-.51.29-.64,15s-.14,44-.14,58.85c0,9.38,0,13,0,14.44" transform="translate(-206.49 -271.84)"/><path class="cls-11" d="M250.15,443.53c.77.52,2.37,1.48,5.71,3.43,5.65,3.28,16.29,9.37,22.77,13" transform="translate(-206.49 -271.84)"/><line class="cls-11" x1="72.15" y1="188.14" x2="80.41" y2="192.8"/><line class="cls-11" x1="81.65" y1="125.25" x2="81.65" y2="190.99"/><polygon class="cls-9" points="79.26 132.58 79.26 126.47 51.15 110.15 51.15 116.56 79.26 132.58"/><path class="cls-9" d="M287.54,324.52c-.75.18-1.22-.72-1.36-1.29s-.12-1.59.63-1.77,1.23.72,1.36,1.29S288.29,324.34,287.54,324.52Z" transform="translate(-206.49 -271.84)"/><path class="cls-9" d="M287.54,319.21c-.75.18-1.22-.72-1.36-1.29s-.12-1.59.63-1.76,1.23.71,1.36,1.29S288.29,319,287.54,319.21Z" transform="translate(-206.49 -271.84)"/><path class="cls-9" d="M283.15,316.61c-.75.18-1.22-.72-1.36-1.29s-.12-1.59.63-1.77,1.23.72,1.36,1.29S283.9,316.43,283.15,316.61Z" transform="translate(-206.49 -271.84)"/><path class="cls-9" d="M293,293.91c-.38.21-1,.56-1.39.77s-.42.29-.46.35,0,.11,0,.15a2.38,2.38,0,0,0,.47.31c.36.23,1,.63,1.39.85a2.22,2.22,0,0,0,.58.29.44.44,0,0,0,.28,0,6.29,6.29,0,0,0,.6-.36c.4-.24,1.08-.64,1.43-.87s.37-.29.36-.34-.05-.07-.46-.31-1.21-.7-1.64-.94-.5-.23-.59-.2S293.34,293.7,293,293.91Z" transform="translate(-206.49 -271.84)"/><path class="cls-9" d="M276.82,295c16-9.24,16.41-9.26,16.78-9.24s.7.09,16.85,9.32" transform="translate(-206.49 -271.84)"/><path class="cls-11" d="M289.85,285.28c-2.76,1.56-7.77,4.49-10.59,6.11s-3.47,1.95-3.68,2.24,0,.58,2.78,2.31,8.07,4.9,11,6.65,3.44,2.08,4.25,1.93,1.91-.78,4.88-2.49,7.8-4.5,10.31-6,2.69-1.69,2.74-1.88,0-.39-2.81-2.11-8.23-5-11.19-6.66-3.41-1.86-3.9-1.85S292.62,283.73,289.85,285.28Z" transform="translate(-206.49 -271.84)"/><path class="cls-9" d="M255.85,295.73c.66.89,17.61,10.64,26.22,15.62s8.88,5.17,9.35,5.31a6.59,6.59,0,0,0,1.84.2,11.12,11.12,0,0,0,2-.22c.58-.12,1-.26,6.9-3.59s17.14-9.87,22.92-13.24,6.08-3.61,6.33-4.3" transform="translate(-206.49 -271.84)"/><path class="cls-12" d="M330.67,292.82a1.54,1.54,0,0,1,.74,1.49c0,.56,0,1.19,0,1.95" transform="translate(-206.49 -271.84)"/><path class="cls-12" d="M256.49,292.82a5.94,5.94,0,0,0-.64,2.8" transform="translate(-206.49 -271.84)"/><path class="cls-12" d="M290.65,273.11c2.19-1.25,3.76-1.12,5.16-.1" transform="translate(-206.49 -271.84)"/><path class="cls-9" d="M330,294.5q1.69-1,.63-1.68" transform="translate(-206.49 -271.84)"/><path class="cls-9" d="M289.73,313.28a7.33,7.33,0,0,0,7.86-.19" transform="translate(-206.49 -271.84)"/><path class="cls-9" d="M257.63,294.74c-1.36-.79-1.37-1.28-1.26-1.65a1.4,1.4,0,0,1,.68-.82" transform="translate(-206.49 -271.84)"/><line class="cls-9" x1="83.24" y1="41.44" x2="51.15" y2="22.9"/><line class="cls-9" x1="123.55" y1="22.66" x2="91.11" y2="41.26"/><line class="cls-12" x1="89.33" y1="1.17" x2="124.18" y2="20.98"/><line class="cls-12" x1="50.57" y1="20.43" x2="84.16" y2="1.28"/><line class="cls-9" x1="90.3" y1="53.84" x2="90.3" y2="44.18"/><line class="cls-9" x1="83.88" y1="52.07" x2="83.88" y2="44.3"/><path class="cls-9" d="M281.93,319.24c.63-1,1.56-.12,1.83.81s.08,2.23-1,1.83" transform="translate(-206.49 -271.84)"/><path class="cls-9" d="M282.71,325.92l2,1.18" transform="translate(-206.49 -271.84)"/><line class="cls-11" x1="76.22" y1="51.31" x2="80.72" y2="53.87"/><line class="cls-9" x1="51.79" y1="33.96" x2="51.79" y2="25.55"/><line class="cls-12" x1="49.37" y1="23.78" x2="49.37" y2="32.58"/><line class="cls-9" x1="142.42" y1="126.92" x2="147.05" y2="124.3"/><path class="cls-9" d="M354.19,397c.75.18,1.22-.72,1.36-1.29s.12-1.59-.63-1.77-1.23.72-1.36,1.29S353.44,396.77,354.19,397Z" transform="translate(-206.49 -271.84)"/><path class="cls-9" d="M343.09,439.64c.75.18,1.22-.72,1.36-1.29s.12-1.59-.63-1.77-1.23.72-1.36,1.29S342.34,439.46,343.09,439.64Z" transform="translate(-206.49 -271.84)"/><path class="cls-9" d="M347.48,437c.75.18,1.22-.71,1.36-1.29s.12-1.58-.63-1.76-1.23.71-1.36,1.29S346.73,436.85,347.48,437Z" transform="translate(-206.49 -271.84)"/><line class="cls-9" x1="138.02" y1="165.73" x2="140.35" y2="164.41"/><line class="cls-9" x1="138.02" y1="129.4" x2="140.35" y2="128.09"/><path class="cls-9" d="M347.48,400.7c.75.18,1.22-.71,1.36-1.29s.12-1.58-.63-1.76-1.23.72-1.36,1.29S346.73,400.53,347.48,400.7Z" transform="translate(-206.49 -271.84)"/><path class="cls-9" d="M343.09,403.31c.75.18,1.22-.72,1.36-1.29s.12-1.59-.63-1.77-1.23.72-1.36,1.29S342.34,403.13,343.09,403.31Z" transform="translate(-206.49 -271.84)"/><path class="cls-9" d="M343.09,385.28c.75.18,1.22-.71,1.36-1.29s.12-1.58-.63-1.76-1.23.72-1.36,1.29S342.34,385.1,343.09,385.28Z" transform="translate(-206.49 -271.84)"/><path class="cls-9" d="M351.87,362.21c.75.18,1.23-.72,1.36-1.29s.12-1.59-.63-1.77-1.22.72-1.36,1.29S351.12,362,351.87,362.21Z" transform="translate(-206.49 -271.84)"/><path class="cls-9" d="M369.42,420c.75.18,1.23-.72,1.36-1.29s.12-1.59-.63-1.77-1.22.72-1.36,1.29S368.67,419.8,369.42,420Z" transform="translate(-206.49 -271.84)"/><path class="cls-9" d="M365,422.56c.75.18,1.22-.71,1.36-1.29s.12-1.58-.63-1.76-1.22.72-1.36,1.29S364.28,422.38,365,422.56Z" transform="translate(-206.49 -271.84)"/><path class="cls-9" d="M360.64,425.14c.75.18,1.22-.72,1.36-1.29s.12-1.59-.63-1.77-1.23.72-1.36,1.29S359.89,425,360.64,425.14Z" transform="translate(-206.49 -271.84)"/><path class="cls-9" d="M360.64,389.09c.75.18,1.22-.72,1.36-1.29s.12-1.58-.63-1.76-1.23.71-1.36,1.29S359.89,388.91,360.64,389.09Z" transform="translate(-206.49 -271.84)"/><path class="cls-9" d="M365,386.52c.75.18,1.22-.72,1.36-1.29s.12-1.59-.63-1.77-1.22.72-1.36,1.29S364.28,386.34,365,386.52Z" transform="translate(-206.49 -271.84)"/><path class="cls-9" d="M369.42,383.93c.75.18,1.23-.72,1.36-1.29s.12-1.59-.63-1.77-1.22.72-1.36,1.29S368.67,383.75,369.42,383.93Z" transform="translate(-206.49 -271.84)"/><path class="cls-9" d="M369.42,365.91c.75.17,1.23-.72,1.36-1.29s.12-1.59-.63-1.77-1.22.72-1.36,1.29S368.67,365.73,369.42,365.91Z" transform="translate(-206.49 -271.84)"/><path class="cls-9" d="M365,368.49c.75.18,1.22-.72,1.36-1.29s.12-1.58-.63-1.76-1.22.71-1.36,1.29S364.28,368.31,365,368.49Z" transform="translate(-206.49 -271.84)"/><path class="cls-9" d="M360.64,371.07c.75.18,1.22-.72,1.36-1.29s.12-1.59-.63-1.77-1.23.72-1.36,1.29S359.89,370.89,360.64,371.07Z" transform="translate(-206.49 -271.84)"/><path class="cls-9" d="M343.09,367.26c.75.18,1.22-.72,1.36-1.29s.12-1.59-.63-1.77-1.23.72-1.36,1.29S342.34,367.08,343.09,367.26Z" transform="translate(-206.49 -271.84)"/><path class="cls-9" d="M347.48,364.66c.75.18,1.22-.72,1.36-1.29s.12-1.59-.63-1.77-1.23.72-1.36,1.29S346.73,364.48,347.48,364.66Z" transform="translate(-206.49 -271.84)"/><path class="cls-9" d="M360.57,335.62c.75.18,1.22-.71,1.36-1.29s.12-1.58-.63-1.76-1.23.71-1.36,1.29S359.82,335.44,360.57,335.62Z" transform="translate(-206.49 -271.84)"/><path class="cls-9" d="M365,333.05c.75.18,1.23-.72,1.36-1.29s.12-1.59-.63-1.77-1.22.72-1.36,1.29S364.21,332.87,365,333.05Z" transform="translate(-206.49 -271.84)"/><path class="cls-9" d="M369.35,330.46c.75.18,1.23-.72,1.37-1.29s.11-1.59-.64-1.76-1.22.71-1.36,1.29S368.6,330.28,369.35,330.46Z" transform="translate(-206.49 -271.84)"/><line class="cls-11" x1="93.83" y1="45.02" x2="127.43" y2="25.87"/><line class="cls-12" x1="132.6" y1="25.76" x2="167.45" y2="45.57"/><line class="cls-9" x1="166.82" y1="47.25" x2="134.38" y2="65.85"/><line class="cls-9" x1="126.51" y1="66.03" x2="94.42" y2="47.49"/><path class="cls-9" d="M300.9,319.33c-1.37-.79-1.38-1.28-1.26-1.65a1.33,1.33,0,0,1,.68-.82" transform="translate(-206.49 -271.84)"/><path class="cls-9" d="M333,337.87a7.33,7.33,0,0,0,7.86-.19" transform="translate(-206.49 -271.84)"/><path class="cls-9" d="M373.3,319.09c1.14-.65,1.35-1.21.64-1.68" transform="translate(-206.49 -271.84)"/><path class="cls-12" d="M333.91,297.7c2.2-1.25,3.77-1.12,5.17-.1" transform="translate(-206.49 -271.84)"/><path class="cls-11" d="M299.75,317.41a5.83,5.83,0,0,0-.63,2.8" transform="translate(-206.49 -271.84)"/><path class="cls-12" d="M373.94,317.41a1.51,1.51,0,0,1,.73,1.49c0,.56,0,1.19,0,2" transform="translate(-206.49 -271.84)"/><line class="cls-12" x1="168.16" y1="49.01" x2="168.16" y2="59.4"/><path class="cls-12" d="M374.65,331.24c0,.43-.6,1.08-1.78,1.94" transform="translate(-206.49 -271.84)"/><line class="cls-11" x1="166.38" y1="61.34" x2="133.56" y2="80.22"/><path class="cls-11" d="M333.63,352.09a5.82,5.82,0,0,0,6.42,0" transform="translate(-206.49 -271.84)"/><path class="cls-9" d="M299.12,320.32c.65.89,17.6,10.64,26.21,15.62s8.89,5.17,9.36,5.31a6.59,6.59,0,0,0,1.84.2,10.9,10.9,0,0,0,2-.22c.59-.12,1-.26,6.91-3.59s17.14-9.87,22.92-13.24,6.08-3.61,6.33-4.3" transform="translate(-206.49 -271.84)"/><line class="cls-9" x1="127.15" y1="80.26" x2="127.15" y2="68.89"/><line class="cls-9" x1="133.56" y1="80.22" x2="133.56" y2="68.77"/><path class="cls-11" d="M333.12,309.87c-2.77,1.56-7.77,4.49-10.6,6.11s-3.46,1.95-3.67,2.24,0,.58,2.78,2.31,8.07,4.9,11,6.65,3.44,2.08,4.25,1.93,1.91-.78,4.87-2.49,7.81-4.5,10.32-6,2.68-1.69,2.73-1.89,0-.38-2.81-2.1-8.22-5-11.18-6.66-3.41-1.86-3.9-1.85S335.88,308.32,333.12,309.87Z" transform="translate(-206.49 -271.84)"/><line class="cls-12" x1="168.23" y1="65.68" x2="168.23" y2="77.57"/><line class="cls-9" x1="133.56" y1="98.45" x2="133.56" y2="86.85"/><line class="cls-9" x1="127.2" y1="86.9" x2="127.2" y2="98.48"/><line class="cls-9" x1="127.2" y1="104.93" x2="127.2" y2="116.5"/><line class="cls-9" x1="133.56" y1="116.47" x2="133.56" y2="104.87"/><line class="cls-12" x1="168.23" y1="83.71" x2="168.23" y2="95.6"/><line class="cls-9" x1="168.23" y1="101.73" x2="168.23" y2="113.62"/><line class="cls-9" x1="133.56" y1="134.49" x2="133.56" y2="122.9"/><line class="cls-9" x1="127.2" y1="122.95" x2="127.2" y2="134.53"/><line class="cls-9" x1="127.2" y1="140.97" x2="127.2" y2="152.55"/><line class="cls-9" x1="133.56" y1="152.52" x2="133.56" y2="140.92"/><line class="cls-12" x1="168.23" y1="119.76" x2="168.23" y2="131.64"/><line class="cls-12" x1="168.23" y1="137.78" x2="168.23" y2="149.67"/><line class="cls-9" x1="133.56" y1="170.54" x2="133.56" y2="158.95"/><line class="cls-9" x1="127.2" y1="159" x2="127.2" y2="170.57"/><path class="cls-9" d="M336.23,318.5c-.38.21-1,.56-1.39.77s-.42.29-.46.35a.14.14,0,0,0,0,.15c0,.05.1.09.47.31s1,.63,1.39.85a2.07,2.07,0,0,0,.58.29.45.45,0,0,0,.28,0c.1,0,.2-.12.6-.36l1.43-.87c.35-.23.36-.29.35-.34s0-.07-.45-.31l-1.64-.94c-.44-.23-.51-.23-.59-.2S336.61,318.29,336.23,318.5Z" transform="translate(-206.49 -271.84)"/><path class="cls-9" d="M326.42,341.2c-.75.18-1.23-.72-1.36-1.29s-.12-1.59.63-1.77,1.22.72,1.36,1.29S327.17,341,326.42,341.2Z" transform="translate(-206.49 -271.84)"/><path class="cls-11" d="M333.53,370.23a5.58,5.58,0,0,0,1.71.73,9.15,9.15,0,0,0,2.73.13c.85-.1,1.44-.39,7.33-3.78s17.08-9.88,22.92-13.29,6.33-3.73,6.49-4.61" transform="translate(-206.49 -271.84)"/><path class="cls-9" d="M333.51,354.84c.53.29.71.37.91.46a6.48,6.48,0,0,0,1.66.46,5.46,5.46,0,0,0,1.89-.14c.71-.15,1.54-.4,6.46-3.15s13.93-8,18.72-10.78,5.35-3.17,5.53-3.8a1.49,1.49,0,0,0-.84-1.82" transform="translate(-206.49 -271.84)"/><path class="cls-9" d="M333.51,358.65a5.84,5.84,0,0,0,2.21.87,10.61,10.61,0,0,0,2.46-.14c.74-.12,1.31-.27,7.17-3.57s17-9.76,22.77-13.13,6.15-3.66,6.37-4a1.93,1.93,0,0,0,.22-1.16,3,3,0,0,0-.29-1.19,2.8,2.8,0,0,0-1-1c-.54-.39-1.36-.87-2-1.31" transform="translate(-206.49 -271.84)"/><path class="cls-9" d="M333.53,372.87a6.89,6.89,0,0,0,2.55.91,5.69,5.69,0,0,0,1.89-.13c.71-.16,1.54-.41,6.46-3.15s13.93-8,18.72-10.79,5.35-3.17,5.53-3.8a1.5,1.5,0,0,0-.84-1.82" transform="translate(-206.49 -271.84)"/><line class="cls-11" x1="92.64" y1="48.37" x2="92.64" y2="55.16"/><path class="cls-11" d="M333.54,388.26a6.18,6.18,0,0,0,1.7.73,9.87,9.87,0,0,0,2.73.13c.85-.11,1.44-.39,7.33-3.78s17.08-9.88,22.92-13.29,6.33-3.74,6.49-4.62" transform="translate(-206.49 -271.84)"/><path class="cls-11" d="M333.56,406.3a5.62,5.62,0,0,0,1.68.71,9.15,9.15,0,0,0,2.73.13c.85-.1,1.44-.39,7.33-3.78s17.08-9.88,22.92-13.29,6.33-3.73,6.49-4.61" transform="translate(-206.49 -271.84)"/><path class="cls-9" d="M333.55,390.91c.5.27.67.35.87.44a6.48,6.48,0,0,0,1.66.46,5.71,5.71,0,0,0,1.89-.14c.71-.15,1.54-.41,6.46-3.15s13.93-8,18.72-10.78,5.35-3.18,5.53-3.8a1.49,1.49,0,0,0-.84-1.82" transform="translate(-206.49 -271.84)"/><path class="cls-9" d="M333.55,394.72a5.53,5.53,0,0,0,2.17.84,10.09,10.09,0,0,0,2.46-.13c.74-.12,1.31-.27,7.17-3.57s17-9.76,22.77-13.14,6.15-3.65,6.37-4a1.88,1.88,0,0,0,.22-1.15,3.07,3.07,0,0,0-.29-1.2,2.78,2.78,0,0,0-1-1c-.54-.39-1.36-.87-2-1.32" transform="translate(-206.49 -271.84)"/><path class="cls-9" d="M333.57,412.75a5.75,5.75,0,0,0,2.15.84,9.61,9.61,0,0,0,2.46-.14c.74-.12,1.31-.27,7.17-3.57s17-9.76,22.77-13.13,6.15-3.66,6.37-4a1.93,1.93,0,0,0,.22-1.16,3,3,0,0,0-.29-1.19,2.8,2.8,0,0,0-1-1c-.54-.38-1.36-.87-2-1.31" transform="translate(-206.49 -271.84)"/><path class="cls-9" d="M333.56,408.94a7.11,7.11,0,0,0,.86.43,6.48,6.48,0,0,0,1.66.46,5.46,5.46,0,0,0,1.89-.14c.71-.15,1.54-.4,6.46-3.15s13.93-8,18.72-10.78,5.35-3.17,5.53-3.8a1.49,1.49,0,0,0-.84-1.82" transform="translate(-206.49 -271.84)"/><path class="cls-11" d="M333.58,424.33a5.53,5.53,0,0,0,1.66.7,9.49,9.49,0,0,0,2.73.14c.85-.11,1.44-.39,7.33-3.78s17.08-9.89,22.92-13.29,6.33-3.74,6.49-4.62" transform="translate(-206.49 -271.84)"/><path class="cls-12" d="M333.6,442.36a5.5,5.5,0,0,0,1.64.7,9.87,9.87,0,0,0,2.73.13c.85-.1,1.44-.39,7.33-3.78s17.08-9.88,22.92-13.29,6.33-3.73,6.49-4.61" transform="translate(-206.49 -271.84)"/><path class="cls-9" d="M333.58,427a7,7,0,0,0,.84.41,6.48,6.48,0,0,0,1.66.47,5.71,5.71,0,0,0,1.89-.14c.71-.15,1.54-.41,6.46-3.15s13.93-8,18.72-10.79,5.35-3.17,5.53-3.79a1.49,1.49,0,0,0-.84-1.82" transform="translate(-206.49 -271.84)"/><path class="cls-9" d="M333.59,430.78a5.32,5.32,0,0,0,2.13.83,10.09,10.09,0,0,0,2.46-.13c.74-.12,1.31-.27,7.17-3.58s17-9.76,22.77-13.13,6.15-3.66,6.37-4a1.88,1.88,0,0,0,.22-1.15,3,3,0,0,0-.29-1.2,2.78,2.78,0,0,0-1-1c-.54-.39-1.36-.87-2-1.32" transform="translate(-206.49 -271.84)"/><path class="cls-9" d="M333.53,376.68a5.83,5.83,0,0,0,2.19.86,10.09,10.09,0,0,0,2.46-.13c.74-.12,1.31-.27,7.17-3.58s17-9.76,22.77-13.13,6.15-3.66,6.37-4a1.9,1.9,0,0,0,.22-1.16,3,3,0,0,0-.29-1.19,2.87,2.87,0,0,0-1-1c-.54-.38-1.36-.87-2-1.31" transform="translate(-206.49 -271.84)"/><line class="cls-12" x1="124.9" y1="24.42" x2="124.9" y2="27.31"/><line class="cls-9" x1="92.64" y1="54.28" x2="91.87" y2="54.72"/><path class="cls-9" d="M320.09,319.54c16-9.24,16.4-9.26,16.78-9.24s.69.09,16.84,9.32" transform="translate(-206.49 -271.84)"/><path class="cls-9" d="M331.45,313v-.11" transform="translate(-206.49 -271.84)"/><line class="cls-9" x1="124.96" y1="41.09" x2="124.96" y2="41.2"/><path class="cls-9" d="M328.27,327.48l-.08-.06" transform="translate(-206.49 -271.84)"/><path class="cls-9" d="M330.81,343.8c-.75.18-1.23-.72-1.36-1.29s-.12-1.59.63-1.77,1.22.72,1.36,1.29S331.56,343.62,330.81,343.8Z" transform="translate(-206.49 -271.84)"/><path class="cls-9" d="M282.75,394.07V394" transform="translate(-206.49 -271.84)"/><path class="cls-9" d="M255.75,424.6h0" transform="translate(-206.49 -271.84)"/><path class="cls-9" d="M259.82,368.2l.06,0" transform="translate(-206.49 -271.84)"/><path class="cls-9" d="M270.05,335.49c-.17-2-2.47-.71-2.08,1.18" transform="translate(-206.49 -271.84)"/><path class="cls-9" d="M274.45,333c-.11-2.09-2.56-.78-2.07,1.18" transform="translate(-206.49 -271.84)"/><path class="cls-9" d="M278.84,330.48c0-1-.61-1.7-1.46-1a2.19,2.19,0,0,0-.59,2.13" transform="translate(-206.49 -271.84)"/><line class="cls-11" x1="76.22" y1="50.88" x2="76.22" y2="56.43"/><path class="cls-9" d="M213.87,392.21c-.66.62-.73,1-.75,1.21a1,1,0,0,0,.1.56,2.23,2.23,0,0,0,.47.49c.24.21.59.5,5.22,3.22s13.54,7.85,18.16,10.51,5,2.85,5.41,3a6.48,6.48,0,0,0,1.66.46,5.69,5.69,0,0,0,1.89-.13l.21-.05" transform="translate(-206.49 -271.84)"/><path class="cls-9" d="M210,372c-2.74,1.79-2.87,2.07-2.94,2.31a1.88,1.88,0,0,0-.07.66,2,2,0,0,0,.19.81,3.79,3.79,0,0,0,.86,1.11c.43.4,1,.8,6.67,4.13s16.34,9.58,22,12.83,6.27,3.5,7,3.57a10.09,10.09,0,0,0,2.46-.13l.1,0" transform="translate(-206.49 -271.84)"/><path class="cls-9" d="M213.87,374.19c-.66.61-.73.95-.75,1.2a1,1,0,0,0,.1.56,2.23,2.23,0,0,0,.47.5c.24.21.59.5,5.22,3.21s13.54,7.86,18.16,10.52,5,2.85,5.41,3a6.48,6.48,0,0,0,1.66.46,5.71,5.71,0,0,0,1.89-.14l.35-.08" transform="translate(-206.49 -271.84)"/><path class="cls-11" d="M207,387.77c.27.65.63.9,6.42,4.25s17,9.79,22.84,13.13,6.25,3.57,7,3.73A9.15,9.15,0,0,0,246,409l.23,0" transform="translate(-206.49 -271.84)"/><path class="cls-11" d="M207,369.75c.27.64.63.9,6.42,4.24s17,9.79,22.84,13.13,6.25,3.58,7,3.74A9.87,9.87,0,0,0,246,391l.37-.07" transform="translate(-206.49 -271.84)"/><path class="cls-9" d="M210,354c-2.74,1.79-2.87,2.07-2.94,2.31a1.94,1.94,0,0,0-.07.67,2,2,0,0,0,.19.81,3.79,3.79,0,0,0,.86,1.11c.43.39,1,.8,6.67,4.12s16.34,9.58,22,12.83,6.27,3.5,7,3.58a10.09,10.09,0,0,0,2.46-.13l.26,0" transform="translate(-206.49 -271.84)"/><path class="cls-9" d="M213.87,356.16c-.66.62-.73,1-.75,1.21a1,1,0,0,0,.1.56,2,2,0,0,0,.47.49c.24.21.59.5,5.22,3.22s13.54,7.85,18.16,10.52,5,2.84,5.41,3a6.48,6.48,0,0,0,1.66.46,5.43,5.43,0,0,0,1.89-.13,4.67,4.67,0,0,0,.5-.13" transform="translate(-206.49 -271.84)"/><path class="cls-9" d="M210,336c-2.74,1.79-2.87,2.07-2.94,2.31a1.91,1.91,0,0,0-.07.66,2,2,0,0,0,.19.81,3.55,3.55,0,0,0,.86,1.11c.43.4,1,.8,6.67,4.13s16.34,9.58,22,12.83,6.27,3.5,7,3.58a10.09,10.09,0,0,0,2.46-.14l.42-.08" transform="translate(-206.49 -271.84)"/><path class="cls-9" d="M213.87,338.14c-.66.61-.73.95-.75,1.2a1,1,0,0,0,.1.56,2,2,0,0,0,.47.5c.24.21.59.5,5.22,3.21s13.54,7.86,18.16,10.52,5,2.85,5.41,3a6.48,6.48,0,0,0,1.66.46,5.46,5.46,0,0,0,1.89-.14,4.59,4.59,0,0,0,.67-.18" transform="translate(-206.49 -271.84)"/><path class="cls-11" d="M207,351.72c.27.65.63.9,6.42,4.25s17,9.79,22.84,13.13,6.25,3.57,7,3.73A9.15,9.15,0,0,0,246,373a2.87,2.87,0,0,0,.53-.1" transform="translate(-206.49 -271.84)"/><path class="cls-11" d="M241.69,354a5.92,5.92,0,0,0,5,.64" transform="translate(-206.49 -271.84)"/><line class="cls-9" x1="41.62" y1="76.16" x2="41.62" y2="70.64"/><path class="cls-9" d="M210,408.06c-2.74,1.79-2.87,2.07-2.94,2.31a1.88,1.88,0,0,0-.07.66,2,2,0,0,0,.19.81,3.79,3.79,0,0,0,.86,1.11c.43.39,1,.8,6.67,4.13s16.34,9.58,22,12.83,6.27,3.49,7,3.57a9.49,9.49,0,0,0,2.38-.12" transform="translate(-206.49 -271.84)"/><path class="cls-9" d="M213.87,410.24c-.66.61-.73.95-.75,1.2a1,1,0,0,0,.1.56,2.23,2.23,0,0,0,.47.5c.24.21.59.5,5.22,3.21s13.54,7.86,18.16,10.52,5,2.84,5.41,3a6.91,6.91,0,0,0,1.66.46,5.71,5.71,0,0,0,1.89-.14l.13,0" transform="translate(-206.49 -271.84)"/><path class="cls-12" d="M207,423.82c.27.65.63.9,6.42,4.25l22.84,13.13c5.83,3.34,6.25,3.57,7,3.73a9.5,9.5,0,0,0,2.73.13,3.58,3.58,0,0,0,.43-.08" transform="translate(-206.49 -271.84)"/><path class="cls-11" d="M207,405.8c.27.64.63.89,6.42,4.24s17,9.79,22.84,13.13,6.25,3.58,7,3.73A9.49,9.49,0,0,0,246,427l.13,0" transform="translate(-206.49 -271.84)"/><path class="cls-9" d="M210,390c-2.74,1.79-2.87,2.07-2.94,2.31a1.94,1.94,0,0,0-.07.67,2,2,0,0,0,.19.8,3.55,3.55,0,0,0,.86,1.11c.43.4,1,.8,6.67,4.13s16.34,9.58,22,12.83,6.27,3.5,7,3.58a10,10,0,0,0,2.44-.13" transform="translate(-206.49 -271.84)"/><path class="cls-9" d="M238.87,351c-.75.18-1.23-.72-1.36-1.29s-.12-1.59.63-1.77,1.22.72,1.36,1.29S239.62,350.8,238.87,351Z" transform="translate(-206.49 -271.84)"/><path class="cls-9" d="M234.48,348.37c-.75.18-1.22-.71-1.36-1.29s-.12-1.58.63-1.76,1.23.72,1.36,1.29S235.23,348.19,234.48,348.37Z" transform="translate(-206.49 -271.84)"/><path class="cls-9" d="M238.87,345.67c-.75.18-1.23-.72-1.36-1.29s-.12-1.59.63-1.76,1.22.71,1.36,1.29S239.62,345.49,238.87,345.67Z" transform="translate(-206.49 -271.84)"/><path class="cls-9" d="M234.48,343.07c-.75.18-1.22-.72-1.36-1.29s-.12-1.59.63-1.77,1.23.72,1.36,1.29S235.23,342.89,234.48,343.07Z" transform="translate(-206.49 -271.84)"/><path class="cls-9" d="M244.29,320.37c-.38.21-1,.56-1.39.77s-.42.29-.46.35,0,.11,0,.15.1.09.47.31,1,.63,1.39.85a2.07,2.07,0,0,0,.58.29.45.45,0,0,0,.28,0c.1,0,.2-.12.6-.36s1.08-.64,1.43-.87.36-.29.35-.34,0-.07-.45-.31-1.21-.7-1.64-.93-.51-.24-.59-.21S244.67,320.16,244.29,320.37Z" transform="translate(-206.49 -271.84)"/><line class="cls-9" x1="35.26" y1="160.87" x2="35.26" y2="172.44"/><line class="cls-9" x1="3.11" y1="142.17" x2="3.11" y2="153.98"/><line class="cls-12" x1="0.54" y1="139.19" x2="0.54" y2="151.98"/><line class="cls-12" x1="0.54" y1="121.17" x2="0.54" y2="133.96"/><line class="cls-9" x1="3.11" y1="124.14" x2="3.11" y2="135.96"/><line class="cls-9" x1="35.26" y1="142.84" x2="35.26" y2="154.42"/><line class="cls-9" x1="35.26" y1="124.82" x2="35.26" y2="136.4"/><line class="cls-9" x1="3.11" y1="106.12" x2="3.11" y2="117.93"/><line class="cls-9" x1="0.54" y1="103.15" x2="0.54" y2="115.94"/><line class="cls-9" x1="0.54" y1="85.12" x2="0.54" y2="97.91"/><line class="cls-9" x1="3.11" y1="88.09" x2="3.11" y2="99.91"/><line class="cls-9" x1="35.26" y1="106.8" x2="35.26" y2="118.37"/><line class="cls-9" x1="35.26" y1="88.77" x2="35.26" y2="100.35"/><line class="cls-9" x1="3.11" y1="70.07" x2="3.11" y2="81.88"/><line class="cls-12" x1="0.54" y1="67.1" x2="0.54" y2="79.89"/><path class="cls-9" d="M228.15,321.41c16-9.24,16.4-9.26,16.78-9.24s.7.09,16.84,9.32" transform="translate(-206.49 -271.84)"/><path class="cls-11" d="M241.18,311.74c-2.77,1.56-7.77,4.49-10.6,6.11s-3.46,1.95-3.67,2.25,0,.57,2.78,2.3,8.07,4.9,11,6.65,3.44,2.08,4.25,1.93,1.91-.78,4.87-2.49,7.81-4.5,10.32-6,2.69-1.69,2.73-1.88,0-.39-2.81-2.11-8.22-5-11.18-6.66S245.45,310,245,310,243.94,310.19,241.18,311.74Z" transform="translate(-206.49 -271.84)"/><line class="cls-9" x1="35.21" y1="82.13" x2="35.21" y2="70.76"/><line class="cls-9" x1="3.11" y1="63.87" x2="3.11" y2="52.01"/><path class="cls-9" d="M207.18,322.19c.65.89,17.6,10.64,26.21,15.62s8.89,5.17,9.36,5.31a6.59,6.59,0,0,0,1.84.2,10.9,10.9,0,0,0,2-.22c.59-.11,1-.26,6.91-3.59s17.14-9.87,22.92-13.24,6.08-3.61,6.33-4.3" transform="translate(-206.49 -271.84)"/><line class="cls-11" x1="3.11" y1="63.87" x2="35.21" y2="82.13"/><path class="cls-9" d="M207.18,333.28c0,.51.81,1.32,2.42,2.43" transform="translate(-206.49 -271.84)"/><line class="cls-9" x1="0.7" y1="50.25" x2="0.7" y2="61.44"/><path class="cls-11" d="M282,319.28a1.51,1.51,0,0,1,.73,1.49c0,.56,0,1.19,0,2" transform="translate(-206.49 -271.84)"/><path class="cls-12" d="M207.81,319.28a5.83,5.83,0,0,0-.63,2.8" transform="translate(-206.49 -271.84)"/><path class="cls-12" d="M242,299.57c2.2-1.25,3.77-1.12,5.17-.1" transform="translate(-206.49 -271.84)"/><path class="cls-9" d="M281.36,321c1.14-.65,1.35-1.21.64-1.68" transform="translate(-206.49 -271.84)"/><path class="cls-9" d="M241.06,339.74a7.33,7.33,0,0,0,7.86-.19" transform="translate(-206.49 -271.84)"/><path class="cls-9" d="M209,321.2c-1.37-.79-1.38-1.27-1.26-1.65a1.33,1.33,0,0,1,.68-.82" transform="translate(-206.49 -271.84)"/><line class="cls-9" x1="34.57" y1="67.9" x2="2.48" y2="49.37"/><line class="cls-9" x1="74.88" y1="49.12" x2="42.44" y2="67.72"/><line class="cls-11" x1="40.66" y1="27.63" x2="75.51" y2="47.44"/><line class="cls-12" x1="1.89" y1="46.89" x2="35.49" y2="27.74"/><path class="cls-9" d="M238.92,363.79c-.75.17-1.22-.72-1.36-1.29s-.12-1.59.63-1.77,1.23.72,1.36,1.29S239.67,363.61,238.92,363.79Z" transform="translate(-206.49 -271.84)"/><path class="cls-9" d="M234.53,366.49c-.75.18-1.22-.72-1.36-1.29s-.12-1.59.63-1.77,1.23.72,1.36,1.29S235.28,366.31,234.53,366.49Z" transform="translate(-206.49 -271.84)"/><path class="cls-9" d="M238.92,369.09c-.75.18-1.22-.72-1.36-1.29s-.12-1.58.63-1.76,1.23.71,1.36,1.29S239.67,368.91,238.92,369.09Z" transform="translate(-206.49 -271.84)"/><path class="cls-9" d="M238.92,387.12c-.75.17-1.22-.72-1.36-1.29s-.12-1.59.63-1.77,1.23.72,1.36,1.29S239.67,386.94,238.92,387.12Z" transform="translate(-206.49 -271.84)"/><path class="cls-9" d="M234.53,384.51c-.75.18-1.22-.72-1.36-1.29s-.12-1.58.63-1.76,1.23.71,1.36,1.29S235.28,384.33,234.53,384.51Z" transform="translate(-206.49 -271.84)"/><path class="cls-9" d="M238.92,381.81c-.75.18-1.22-.72-1.36-1.29s-.12-1.59.63-1.77,1.23.72,1.36,1.29S239.67,381.63,238.92,381.81Z" transform="translate(-206.49 -271.84)"/><path class="cls-9" d="M238.92,399.83c-.75.18-1.22-.71-1.36-1.29s-.12-1.58.63-1.76,1.23.72,1.36,1.29S239.67,399.65,238.92,399.83Z" transform="translate(-206.49 -271.84)"/><path class="cls-9" d="M234.53,402.54c-.75.18-1.22-.72-1.36-1.29s-.12-1.59.63-1.77,1.23.72,1.36,1.29S235.28,402.36,234.53,402.54Z" transform="translate(-206.49 -271.84)"/><path class="cls-9" d="M238.92,405.14c-.75.18-1.22-.72-1.36-1.29s-.12-1.59.63-1.77,1.23.72,1.36,1.29S239.67,405,238.92,405.14Z" transform="translate(-206.49 -271.84)"/><path class="cls-9" d="M238.92,423.16c-.75.18-1.22-.71-1.36-1.29s-.12-1.58.63-1.76,1.23.72,1.36,1.29S239.67,423,238.92,423.16Z" transform="translate(-206.49 -271.84)"/><path class="cls-9" d="M234.53,420.56c-.75.18-1.22-.72-1.36-1.29s-.12-1.59.63-1.77,1.23.72,1.36,1.29S235.28,420.38,234.53,420.56Z" transform="translate(-206.49 -271.84)"/><path class="cls-9" d="M238.92,417.86c-.75.18-1.22-.72-1.36-1.29s-.12-1.59.63-1.77,1.23.72,1.36,1.29S239.67,417.68,238.92,417.86Z" transform="translate(-206.49 -271.84)"/><path class="cls-9" d="M238.92,435.88c-.75.18-1.22-.72-1.36-1.29s-.12-1.58.63-1.76,1.23.71,1.36,1.29S239.67,435.7,238.92,435.88Z" transform="translate(-206.49 -271.84)"/><path class="cls-9" d="M234.53,438.58c-.75.18-1.22-.71-1.36-1.29s-.12-1.58.63-1.76,1.23.72,1.36,1.29S235.28,438.4,234.53,438.58Z" transform="translate(-206.49 -271.84)"/><path class="cls-9" d="M238.92,441.19c-.75.18-1.22-.72-1.36-1.29s-.12-1.59.63-1.77,1.23.72,1.36,1.29S239.67,441,238.92,441.19Z" transform="translate(-206.49 -271.84)"/><path class="cls-9" d="M234.53,433.28c-.75.18-1.22-.72-1.36-1.29s-.12-1.59.63-1.77,1.23.72,1.36,1.29S235.28,433.1,234.53,433.28Z" transform="translate(-206.49 -271.84)"/><line class="cls-12" x1="1.89" y1="46.89" x2="1.33" y2="47.44"/><line class="cls-12" x1="0.7" y1="50.35" x2="0.7" y2="61.44"/><line class="cls-12" x1="40.66" y1="27.63" x2="49.37" y2="32.58"/><line class="cls-12" x1="50.43" y1="20.42" x2="50.12" y2="20.73"/><line class="cls-12" x1="124.9" y1="27.31" x2="127.43" y2="25.87"/><line class="cls-11" x1="93.35" y1="45.46" x2="93.78" y2="45.06"/><path class="cls-11" d="M333.59,348.75v93.63c0,.44,0,.84,0,1.19a1.89,1.89,0,0,1-.14.89,1.43,1.43,0,0,1-.47.48c-.81.52-41,24.55-42.87,25.65" transform="translate(-206.49 -271.84)"/><line class="cls-11" x1="40.87" y1="76.6" x2="40.45" y2="77.1"/><path class="cls-13" d="M246.66,351.32a10.93,10.93,0,0,1,.1-2.25,1.54,1.54,0,0,1,.49-.61,1,1,0,0,1,.66-.18,2.82,2.82,0,0,1,1.13.36c.55.26,1.33.7,7.81,4.43s18.67,10.76,24.94,14.36,6.62,3.8,6.88,4a3.53,3.53,0,0,1,.58.53,2.32,2.32,0,0,1,.38.58,9.12,9.12,0,0,1,.69,1.68c.18.66.23,1.32.25,17.17s0,46.88,0,62.57,0,16-.08,16.23a.72.72,0,0,1-.41.41,2,2,0,0,1-.69.21c-.27,0-.56-.07-7.37-3.91s-20.17-11.44-27.18-15.49a86.85,86.85,0,0,1-7.67-4.66" transform="translate(-206.49 -271.84)"/><path class="cls-14" d="M246.69,444.75v1.11a.86.86,0,0,0,.51.88" transform="translate(-206.49 -271.84)"/><line class="cls-15" x1="40.18" y1="79.48" x2="40.18" y2="170.85"/><path class="cls-12" d="M371.69,406.3l.7.46.83.55a6.33,6.33,0,0,1,.55.4,2.23,2.23,0,0,1,.46.46,2.33,2.33,0,0,1,.35.8,2.22,2.22,0,0,1,.06.36" transform="translate(-206.49 -271.84)"/><path class="cls-12" d="M371.77,388.24l.7.46.83.55a6.33,6.33,0,0,1,.55.4,2.29,2.29,0,0,1,.46.47,2.22,2.22,0,0,1,.35.79,2.4,2.4,0,0,1,.06.36" transform="translate(-206.49 -271.84)"/><path class="cls-12" d="M371.89,370.34l.7.45.83.56c.28.19.43.28.56.39a2.25,2.25,0,0,1,.81,1.27c0,.14,0,.27.06.36" transform="translate(-206.49 -271.84)"/><path class="cls-12" d="M371.76,352.12l.71.46.83.55a6.33,6.33,0,0,1,.55.4,2.5,2.5,0,0,1,.46.46,2.33,2.33,0,0,1,.35.8q0,.22.06.36" transform="translate(-206.49 -271.84)"/><path class="cls-12" d="M371.69,334.23l.7.46.83.55a6.33,6.33,0,0,1,.55.4,2,2,0,0,1,.46.46,2.33,2.33,0,0,1,.35.8,2.45,2.45,0,0,1,.07.36" transform="translate(-206.49 -271.84)"/><line class="cls-12" x1="164.9" y1="62.27" x2="166.38" y2="61.34"/><line class="cls-12" x1="165.15" y1="80.01" x2="167.48" y2="78.64"/><path class="cls-12" d="M374.14,350.36a2.68,2.68,0,0,0,.32-.34,3.12,3.12,0,0,0,.25-.39" transform="translate(-206.49 -271.84)"/><line class="cls-12" x1="165.21" y1="98.15" x2="167.54" y2="96.77"/><path class="cls-12" d="M374.2,368.5a2.68,2.68,0,0,0,.32-.34c.1-.14.18-.27.25-.39" transform="translate(-206.49 -271.84)"/><line class="cls-12" x1="165.21" y1="116.19" x2="167.54" y2="114.82"/><path class="cls-12" d="M374.2,386.54a2.68,2.68,0,0,0,.32-.34c.1-.14.18-.27.25-.39" transform="translate(-206.49 -271.84)"/><line class="cls-12" x1="165.18" y1="134.13" x2="167.51" y2="132.76"/><path class="cls-12" d="M374.18,404.49a2.2,2.2,0,0,0,.31-.35,2.28,2.28,0,0,0,.25-.39" transform="translate(-206.49 -271.84)"/><line class="cls-12" x1="168.34" y1="113.8" x2="168.34" y2="101.71"/><line class="cls-12" x1="0.51" y1="85.75" x2="0.51" y2="97.64"/><path class="cls-12" d="M210,408.34l-.7.46-.83.55a6.33,6.33,0,0,0-.55.4,2.57,2.57,0,0,0-.46.47,2.22,2.22,0,0,0-.35.79,2.31,2.31,0,0,0-.06.37" transform="translate(-206.49 -271.84)"/><path class="cls-12" d="M209.94,390.29l-.7.45-.83.56a5,5,0,0,0-.55.39,2.57,2.57,0,0,0-.46.47,2.18,2.18,0,0,0-.35.8,2.06,2.06,0,0,0-.06.36" transform="translate(-206.49 -271.84)"/><path class="cls-12" d="M209.82,372.38l-.7.46-.83.55c-.28.19-.43.28-.56.39a2.52,2.52,0,0,0-.45.47,2.32,2.32,0,0,0-.36.8q0,.22-.06.36" transform="translate(-206.49 -271.84)"/><path class="cls-12" d="M210,354.16l-.71.46-.83.56a5,5,0,0,0-.55.39,2.93,2.93,0,0,0-.46.47,2.22,2.22,0,0,0-.35.79c0,.15-.05.28-.06.37" transform="translate(-206.49 -271.84)"/><line class="cls-12" x1="3.53" y1="100.19" x2="1.2" y2="98.82"/><path class="cls-12" d="M207.51,370.54a2.68,2.68,0,0,1-.32-.34c-.1-.14-.18-.27-.25-.39" transform="translate(-206.49 -271.84)"/><line class="cls-12" x1="3.53" y1="118.23" x2="1.2" y2="116.86"/><path class="cls-12" d="M207.51,388.59a2.84,2.84,0,0,1-.32-.35c-.1-.14-.18-.27-.25-.39" transform="translate(-206.49 -271.84)"/><line class="cls-12" x1="3.55" y1="136.17" x2="1.23" y2="134.8"/><path class="cls-12" d="M207.53,406.53a1.83,1.83,0,0,1-.31-.35,2.23,2.23,0,0,1-.25-.38" transform="translate(-206.49 -271.84)"/><line class="cls-12" x1="0.4" y1="115.84" x2="0.4" y2="103.75"/><path class="cls-12" d="M207.25,333.42c0,.44.59,1.09,1.78,1.94" transform="translate(-206.49 -271.84)"/><path class="cls-12" d="M210.21,336.42l-.71.46-.82.55a5.8,5.8,0,0,0-.56.39,2.93,2.93,0,0,0-.46.47,2.45,2.45,0,0,0-.35.8q0,.23-.06.36" transform="translate(-206.49 -271.84)"/><line class="cls-12" x1="4.02" y1="64.46" x2="2.54" y2="63.53"/><line class="cls-14" x1="40.71" y1="174.91" x2="82.52" y2="199.08"/><line class="cls-15" x1="40.18" y1="170.85" x2="40.18" y2="172.91"/><line class="cls-12" x1="83.63" y1="198.75" x2="126.77" y2="172.81"/><path class="cls-12" d="M289.16,470.89a.75.75,0,0,0,.26,0,1.23,1.23,0,0,0,.57-.23" transform="translate(-206.49 -271.84)"/><path class="cls-12" d="M333.38,444.6l.08-.09a1.64,1.64,0,0,0,.27-1.3" transform="translate(-206.49 -271.84)"/><line class="cls-11" x1="40.2" y1="79.38" x2="40.28" y2="77.23"/><line class="cls-11" x1="41.82" y1="78.34" x2="41.84" y2="78.36"/></svg>