<svg id="Layer_1" data-name="Layer 1" xmlns="http://www.w3.org/2000/svg" viewBox="0 0 112.38 179.43"><defs><style>.cls-1{opacity:0.25;}.cls-2{fill:#197d5a;}.cls-3{opacity:0.4;}.cls-4{opacity:0.8;}</style></defs><g class="cls-1"><path class="cls-2" d="M357.49,363.32c-10.42-2.07-18.59-.92-31.71.73-10.66,1.33-24.6,3-44.44,12.53l-4.57-3.36a26.11,26.11,0,0,0,4.1-2.45V359.2a12.1,12.1,0,0,0,1.47-.5c7.71-3,11.77-4.43,17.05-5.34s11.81-1.3,24.82-1.69v4.53c6.34,4.83,13.93,5.13,21.74,1.89v-1.95Z" transform="translate(-245.11 -288.05)"/><path class="cls-2" d="M245.88,372.88l-.46-.66c4.35-2.28,8.41-4.17,12.19-5.74v2.32c5.9,6.74,12.8,7.38,19.16,4.42l4.57,3.36c-4.57,2.18-9.46,4.81-14.71,7.93-2,0-6.78-1.18-10.61-2.85S249.26,377.79,245.88,372.88Z" transform="translate(-245.11 -288.05)"/></g><g class="cls-3"><path class="cls-2" d="M357.16,363.31V444c-24.69,11.46-35.77,15.39-47.91,18.39a171.24,171.24,0,0,1-42.95,5.09v-83c28-16.66,46.05-18.8,59.17-20.45S346.76,361.24,357.16,363.31Zm-36.88,53.06c3.56-2.6,4.65-7.93,4.21-11.89s-2.8-9.46-7.75-9.1a5.89,5.89,0,0,0-3.6,1.55c-2.3,2-3.48,5.48-3.76,8.17a15.16,15.16,0,0,0,1.73,8.71,8.06,8.06,0,0,0,2.83,2.94l-.74,15,9-2.29Z" transform="translate(-245.11 -288.05)"/><path class="cls-2" d="M345.65,356.15l11.51,7.16c-10.4-2.07-18.57-.92-31.69.74s-31.19,3.79-59.17,20.45c-2,0-6.78-1.17-10.61-2.84s-6.74-3.86-10.12-8.79l-.46-.65c4.36-2.29,8.41-4.18,12.17-5.75v2.33c7.19,8.23,15.9,7.39,23.26,2V359.19a9,9,0,0,0,1.49-.49c7.71-3,11.77-4.44,17.06-5.33s11.81-1.31,24.81-1.69v4.51c6.32,4.83,13.91,5.13,21.75,1.89Z" transform="translate(-245.11 -288.05)"/><path class="cls-2" d="M345.65,356.15v1.93c-7.84,3.24-15.43,2.94-21.75-1.89V325.64c-.72-7.14-5-15.81-14.1-17.06s-22.82,4.89-27.45,19.64a36.15,36.15,0,0,0-1.81,8.29v34.25c-7.36,5.43-16.07,6.27-23.26-2V336.13c.3-4.79.63-7.69,1.71-11.07a47,47,0,0,1,5.19-10.93A72.31,72.31,0,0,1,272.25,304a59.6,59.6,0,0,1,8.94-8.13A43.94,43.94,0,0,1,290.5,291a39.93,39.93,0,0,1,9.8-2.64,48.22,48.22,0,0,1,11,.06,39.79,39.79,0,0,1,8.45,1.91c2.19.75,3.74,1.57,9.64,5.35s16.25,10.47,16.25,33.24Z" transform="translate(-245.11 -288.05)"/><path class="cls-2" d="M324.49,404.48c.44,4-.65,9.29-4.21,11.89l2,13.08-9,2.29.74-15a8.06,8.06,0,0,1-2.83-2.94c2.69-6.25,3.36-11.87,2.05-16.86l0,0a5.89,5.89,0,0,1,3.6-1.55C321.69,395,324.08,400.55,324.49,404.48Z" transform="translate(-245.11 -288.05)"/><path class="cls-2" d="M266.3,384.5v83l-21.19-11.69V372.22l.46.65c3.38,4.93,6.28,7.12,10.12,8.79S264.3,384.5,266.3,384.5Z" transform="translate(-245.11 -288.05)"/></g><g class="cls-4"><path class="cls-2" d="M324.51,404.48c.44,4-.68,9.28-4.23,11.89l1.94,13.08-9,2.29.73-15a8.11,8.11,0,0,1-2.84-2.95l0,0q4-9.36,2.07-16.85l0,0a6,6,0,0,1,3.62-1.53C321.69,395,324.07,400.54,324.51,404.48Z" transform="translate(-245.11 -288.05)"/><path class="cls-2" d="M245.11,455.79V372.21l.45.66c3.38,4.93,6.29,7.12,10.12,8.79s8.61,2.84,10.64,2.84v83Z" transform="translate(-245.11 -288.05)"/></g></svg>